<?xml version="1.0" encoding="UTF-8" standalone="no"?>
<svg
   xmlns:dc="http://purl.org/dc/elements/1.1/"
   xmlns:cc="http://creativecommons.org/ns#"
   xmlns:rdf="http://www.w3.org/1999/02/22-rdf-syntax-ns#"
   xmlns:svg="http://www.w3.org/2000/svg"
   xmlns="http://www.w3.org/2000/svg"
   xmlns:xlink="http://www.w3.org/1999/xlink"
   xmlns:sodipodi="http://sodipodi.sourceforge.net/DTD/sodipodi-0.dtd"
   xmlns:inkscape="http://www.inkscape.org/namespaces/inkscape"
   version="1.1"
   width="340.1575"
   height="226.7717"
   id="svg294"
   viewBox="0 0 340.1575 226.7717"
   sodipodi:docname="logo_salao.svg"
   inkscape:version="0.92.3 (2405546, 2018-03-11)">
  <metadata
     id="metadata300">
    <rdf:RDF>
      <cc:Work
         rdf:about="">
        <dc:format>image/svg+xml</dc:format>
        <dc:type
           rdf:resource="http://purl.org/dc/dcmitype/StillImage" />
        <dc:title></dc:title>
      </cc:Work>
    </rdf:RDF>
  </metadata>
  <defs
     id="defs298" />
  <sodipodi:namedview
     pagecolor="#ffffff"
     bordercolor="#666666"
     borderopacity="1"
     objecttolerance="10"
     gridtolerance="10"
     guidetolerance="10"
     inkscape:pageopacity="0"
     inkscape:pageshadow="2"
     inkscape:window-width="1853"
     inkscape:window-height="1025"
     id="namedview296"
     showgrid="false"
     inkscape:zoom="1.0406942"
     inkscape:cx="170.07875"
     inkscape:cy="-78.793556"
     inkscape:window-x="67"
     inkscape:window-y="27"
     inkscape:window-maximized="1"
     inkscape:current-layer="svg294" />
  <g
     id="Layer1000">
    <g
       id="Layer1001">
      <g
         id="Layer1002">
        <path
           d="m 16.6345,195.1436 -1.7882,-5.9177 h 1.0489 l 0.9447,3.4149 0.3344,1.2714 c 0.0132,-0.0627 0.116,-0.4695 0.3058,-1.2199 l 0.937,-3.4664 h 1.028 l 0.8913,3.436 0.2907,1.1268 0.3402,-1.1421 1.0224,-3.4207 h 0.9749 l -1.8566,5.9177 h -1.0375 l -0.9389,-3.5403 -0.2376,-1.0129 -1.1972,4.5532 z m 8.2343,0 -1.7882,-5.9177 h 1.0489 l 0.9446,3.4149 0.3344,1.2714 c 0.0132,-0.0627 0.116,-0.4695 0.3059,-1.2199 l 0.937,-3.4664 h 1.028 l 0.8913,3.436 0.2907,1.1268 0.3402,-1.1421 1.0224,-3.4207 h 0.9748 l -1.8566,5.9177 h -1.0375 l -0.9388,-3.5403 -0.2377,-1.0129 -1.1971,4.5532 z m 8.2342,0 -1.7881,-5.9177 h 1.0488 l 0.9447,3.4149 0.3344,1.2714 c 0.0132,-0.0627 0.116,-0.4695 0.3058,-1.2199 l 0.937,-3.4664 h 1.028 l 0.8913,3.436 0.2908,1.1268 0.3402,-1.1421 1.0224,-3.4207 h 0.9748 l -1.8566,5.9177 H 36.539 l -0.9389,-3.5403 -0.2376,-1.0129 -1.1971,4.5532 z m 6.826,0 v -1.1402 h 1.1403 v 1.1402 z m 2.4839,-1.7672 0.992,-0.1597 c 0.0552,0.397 0.2109,0.7013 0.4657,0.914 0.2545,0.211 0.6119,0.3175 1.0679,0.3175 0.4618,0 0.8038,-0.0933 1.0282,-0.2813 0.2223,-0.1863 0.3344,-0.4067 0.3344,-0.6594 0,-0.2263 -0.1007,-0.405 -0.3003,-0.534 -0.1406,-0.0893 -0.4827,-0.2014 -1.0261,-0.3402 -0.7335,-0.1844 -1.241,-0.3441 -1.526,-0.4789 -0.2833,-0.1369 -0.498,-0.323 -0.6444,-0.5625 -0.1462,-0.2376 -0.2204,-0.5017 -0.2204,-0.7906 0,-0.2641 0.0608,-0.5075 0.1805,-0.7316 0.1216,-0.2242 0.2852,-0.4105 0.4922,-0.5588 0.1559,-0.114 0.3687,-0.211 0.6367,-0.2908 0.2699,-0.0798 0.5567,-0.1197 0.8646,-0.1197 0.4637,0 0.8705,0.0666 1.2202,0.2014 0.3515,0.1332 0.61,0.3156 0.7771,0.5437 0.1654,0.23 0.2812,0.5358 0.3441,0.9196 l -0.9806,0.1369 c -0.0439,-0.3079 -0.1729,-0.5492 -0.3859,-0.7221 -0.2128,-0.1729 -0.5131,-0.2585 -0.9027,-0.2585 -0.4578,0 -0.7866,0.0761 -0.9825,0.2281 -0.1956,0.152 -0.2945,0.3307 -0.2945,0.5339 0,0.1293 0.04,0.2472 0.1216,0.3516 0.0817,0.1065 0.2091,0.1958 0.3838,0.2661 0.1008,0.0381 0.3936,0.1235 0.8837,0.2565 0.707,0.1881 1.2011,0.3441 1.4823,0.4638 0.2813,0.1198 0.5017,0.2963 0.6614,0.5245 0.1615,0.2299 0.2413,0.5149 0.2413,0.8569 0,0.3328 -0.0968,0.6463 -0.2926,0.9407 -0.1956,0.2947 -0.4769,0.5226 -0.8438,0.6841 -0.3687,0.1618 -0.7847,0.2416 -1.2486,0.2416 -0.7676,0 -1.3549,-0.1597 -1.7578,-0.4771 -0.4028,-0.3193 -0.6595,-0.7906 -0.7715,-1.4157 z m 9.9653,1.0261 c -0.3724,0.3174 -0.7314,0.5397 -1.0755,0.6708 -0.3439,0.1311 -0.7127,0.1959 -1.1078,0.1959 -0.65,0 -1.1498,-0.1578 -1.4995,-0.4753 -0.3497,-0.3153 -0.5245,-0.7202 -0.5245,-1.2124 0,-0.2889 0.0666,-0.553 0.1977,-0.7925 0.133,-0.2394 0.3059,-0.4295 0.5187,-0.5738 0.2148,-0.1444 0.4543,-0.2546 0.7221,-0.3288 0.1977,-0.0513 0.4961,-0.1007 0.8932,-0.1502 0.8096,-0.0949 1.4083,-0.2109 1.7902,-0.3439 0.0037,-0.1369 0.0058,-0.2241 0.0058,-0.2603 0,-0.4068 -0.0951,-0.6936 -0.2852,-0.8609 -0.2564,-0.226 -0.6386,-0.3384 -1.144,-0.3384 -0.4731,0 -0.8228,0.0838 -1.047,0.249 -0.2262,0.1655 -0.3915,0.4581 -0.4998,0.88 l -0.9807,-0.1369 c 0.0894,-0.4201 0.2356,-0.76 0.4409,-1.0185 0.2052,-0.2585 0.5017,-0.4562 0.8895,-0.5968 0.3856,-0.1388 0.8361,-0.2091 1.3454,-0.2091 0.5054,0 0.9178,0.0589 1.2352,0.1787 0.3154,0.1197 0.5493,0.268 0.6975,0.4485 0.1481,0.1805 0.2527,0.4087 0.3135,0.6841 0.0323,0.171 0.0495,0.4789 0.0495,0.9217 v 1.3303 c 0,0.9292 0.0208,1.5165 0.0626,1.7655 0.0399,0.249 0.1235,0.4863 0.2451,0.7144 h -1.0489 c -0.1007,-0.2109 -0.1655,-0.458 -0.194,-0.7411 z m -0.0796,-2.2235 c -0.365,0.1483 -0.9122,0.2738 -1.642,0.3764 -0.4144,0.0589 -0.707,0.1253 -0.878,0.1995 -0.1711,0.0741 -0.3022,0.1824 -0.3952,0.323 -0.0931,0.1425 -0.1406,0.3003 -0.1406,0.475 0,0.2643 0.1007,0.4867 0.3039,0.6635 0.2033,0.1766 0.4999,0.2659 0.8895,0.2659 0.3857,0 0.7298,-0.0835 1.0319,-0.2527 0.3003,-0.1673 0.5226,-0.3973 0.6632,-0.688 0.1084,-0.226 0.1615,-0.5586 0.1615,-0.9976 z m 2.5331,2.9646 v -8.1639 h 1.0033 v 8.1639 z m 6.4212,-0.7411 c -0.3724,0.3174 -0.7314,0.5397 -1.0755,0.6708 -0.3439,0.1311 -0.7126,0.1959 -1.1078,0.1959 -0.65,0 -1.1498,-0.1578 -1.4995,-0.4753 -0.3497,-0.3153 -0.5245,-0.7202 -0.5245,-1.2124 0,-0.2889 0.0666,-0.553 0.1977,-0.7925 0.133,-0.2394 0.3059,-0.4295 0.5187,-0.5738 0.2149,-0.1444 0.4543,-0.2546 0.7221,-0.3288 0.1977,-0.0513 0.4961,-0.1007 0.8932,-0.1502 0.8096,-0.0949 1.4083,-0.2109 1.7902,-0.3439 0.0037,-0.1369 0.0058,-0.2241 0.0058,-0.2603 0,-0.4068 -0.0951,-0.6936 -0.2852,-0.8609 -0.2564,-0.226 -0.6386,-0.3384 -1.144,-0.3384 -0.4731,0 -0.8228,0.0838 -1.047,0.249 -0.2262,0.1655 -0.3914,0.4581 -0.4998,0.88 l -0.9806,-0.1369 c 0.0893,-0.4201 0.2355,-0.76 0.4409,-1.0185 0.2051,-0.2585 0.5016,-0.4562 0.8894,-0.5968 0.3857,-0.1388 0.8361,-0.2091 1.3454,-0.2091 0.5054,0 0.9178,0.0589 1.2352,0.1787 0.3154,0.1197 0.5493,0.268 0.6976,0.4485 0.148,0.1805 0.2527,0.4087 0.3135,0.6841 0.0322,0.171 0.0494,0.4789 0.0494,0.9217 v 1.3303 c 0,0.9292 0.0209,1.5165 0.0626,1.7655 0.04,0.249 0.1235,0.4863 0.2451,0.7144 h -1.0489 c -0.1007,-0.2109 -0.1654,-0.458 -0.194,-0.7411 z m -0.0796,-2.2235 c -0.365,0.1483 -0.9122,0.2738 -1.6419,0.3764 -0.4145,0.0589 -0.7071,0.1253 -0.8781,0.1995 -0.171,0.0741 -0.3021,0.1824 -0.3952,0.323 -0.0931,0.1425 -0.1406,0.3003 -0.1406,0.475 0,0.2643 0.1007,0.4867 0.304,0.6635 0.2032,0.1766 0.4998,0.2659 0.8894,0.2659 0.3857,0 0.7298,-0.0835 1.0319,-0.2527 0.3003,-0.1673 0.5226,-0.3973 0.6632,-0.688 0.1084,-0.226 0.1615,-0.5586 0.1615,-0.9976 z m 2.1797,0.006 c 0,-1.0927 0.304,-1.9024 0.914,-2.4286 0.5073,-0.4372 1.1287,-0.6558 1.8604,-0.6558 0.8114,0 1.4765,0.2661 1.9935,0.7982 0.5149,0.5303 0.7734,1.2656 0.7734,2.2026 0,0.76 -0.1139,1.3568 -0.342,1.7919 -0.2281,0.4354 -0.5607,0.7734 -0.9976,1.015 -0.4353,0.2413 -0.9122,0.3611 -1.4273,0.3611 -0.8285,0 -1.4975,-0.2643 -2.0087,-0.7946 -0.5112,-0.5302 -0.7657,-1.2941 -0.7657,-2.2898 z m 1.0261,0.002 c 0,0.7565 0.1652,1.3227 0.4959,1.697 0.3325,0.3764 0.7488,0.5646 1.2524,0.5646 0.4979,0 0.9121,-0.1882 1.2447,-0.5664 0.3306,-0.3783 0.4961,-0.954 0.4961,-1.7274 0,-0.7298 -0.1673,-1.2828 -0.4998,-1.6571 -0.3326,-0.3764 -0.747,-0.5646 -1.241,-0.5646 -0.5036,0 -0.9199,0.1864 -1.2524,0.5607 -0.3307,0.3745 -0.4959,0.9388 -0.4959,1.6932 z m 9.5112,2.957 v -0.7506 c -0.3743,0.5833 -0.9254,0.8762 -1.6533,0.8762 -0.4713,0 -0.9046,-0.1293 -1.2979,-0.3896 -0.3954,-0.2585 -0.7012,-0.6215 -0.9198,-1.0853 -0.2168,-0.4655 -0.3249,-0.9995 -0.3249,-1.6037 0,-0.5892 0.0986,-1.1231 0.2945,-1.6039 0.1977,-0.479 0.4922,-0.8477 0.8855,-1.1023 0.3914,-0.2566 0.8323,-0.384 1.3171,-0.384 0.3571,0 0.6746,0.0761 0.9519,0.2262 0.2775,0.1502 0.5037,0.3479 0.6785,0.5892 v -2.9361 h 1.0034 v 8.1639 z m -3.1698,-2.9512 c 0,0.7563 0.1597,1.3206 0.4808,1.6952 0.3193,0.3743 0.6973,0.5606 1.1327,0.5606 0.439,0 0.8114,-0.1787 1.1191,-0.536 0.3061,-0.3572 0.46,-0.9027 0.46,-1.6362 0,-0.8057 -0.1557,-1.3986 -0.4695,-1.7768 -0.3116,-0.3783 -0.6973,-0.5665 -1.1553,-0.5665 -0.4465,0 -0.8189,0.1806 -1.1192,0.5437 -0.2984,0.363 -0.4486,0.935 -0.4486,1.716 z m 9.728,1.0357 1.0375,0.1369 c -0.1615,0.6024 -0.4636,1.0718 -0.9045,1.4043 -0.4409,0.3326 -1.0034,0.4999 -1.6896,0.4999 -0.8627,0 -1.5468,-0.2662 -2.0522,-0.7983 -0.5057,-0.5302 -0.7584,-1.2769 -0.7584,-2.2367 0,-0.992 0.2546,-1.7636 0.7658,-2.311 0.5112,-0.549 1.1746,-0.8228 1.9898,-0.8228 0.7885,0 1.4329,0.268 1.9328,0.8059 0.4996,0.5377 0.7504,1.2941 0.7504,2.269 0,0.0589 -0.0019,0.1482 -0.0056,0.2661 h -4.407 c 0.038,0.6479 0.2204,1.1459 0.5511,1.4898 0.3288,0.3439 0.7411,0.517 1.2333,0.517 0.3669,0 0.6804,-0.097 0.9389,-0.2908 0.2603,-0.194 0.4655,-0.5037 0.6177,-0.9293 z m -3.284,-1.6077 h 3.2954 c -0.0439,-0.4979 -0.1711,-0.8704 -0.3783,-1.1194 -0.3174,-0.3856 -0.7316,-0.5796 -1.2391,-0.5796 -0.4597,0 -0.8456,0.1541 -1.1591,0.4618 -0.3116,0.3079 -0.4847,0.7202 -0.5189,1.2372 z m 5.5776,3.5232 v -5.9177 h 0.9008 v 0.9064 c 0.2299,-0.42 0.4427,-0.6973 0.6384,-0.8305 0.1958,-0.1348 0.4105,-0.2014 0.6444,-0.2014 0.3381,0 0.6822,0.1065 1.0319,0.3174 l -0.3574,0.9254 c -0.2432,-0.1366 -0.4866,-0.2051 -0.7298,-0.2051 -0.2186,0 -0.4142,0.0664 -0.5871,0.1977 -0.1731,0.1311 -0.2965,0.3135 -0.3705,0.5472 -0.1124,0.3555 -0.1673,0.7449 -0.1673,1.1688 v 3.0918 z m 3.4322,-2.9588 c 0,-1.0927 0.304,-1.9024 0.9141,-2.4286 0.5072,-0.4372 1.1286,-0.6558 1.8603,-0.6558 0.8115,0 1.4765,0.2661 1.9935,0.7982 0.5149,0.5303 0.7734,1.2656 0.7734,2.2026 0,0.76 -0.1139,1.3568 -0.342,1.7919 -0.2281,0.4354 -0.5606,0.7734 -0.9976,1.015 -0.4353,0.2413 -0.9122,0.3611 -1.4273,0.3611 -0.8284,0 -1.4974,-0.2643 -2.0086,-0.7946 -0.5112,-0.5302 -0.7658,-1.2941 -0.7658,-2.2898 z m 1.0261,0.002 c 0,0.7565 0.1653,1.3227 0.4959,1.697 0.3326,0.3764 0.7488,0.5646 1.2524,0.5646 0.498,0 0.9122,-0.1882 1.2447,-0.5664 0.3307,-0.3783 0.4961,-0.954 0.4961,-1.7274 0,-0.7298 -0.1673,-1.2828 -0.4998,-1.6571 -0.3325,-0.3764 -0.747,-0.5646 -1.241,-0.5646 -0.5036,0 -0.9198,0.1864 -1.2524,0.5607 -0.3306,0.3745 -0.4959,0.9388 -0.4959,1.6932 z m 6.6151,2.957 h -0.935 v -8.1639 h 1.0034 v 2.9131 c 0.4237,-0.5281 0.9635,-0.7924 1.6211,-0.7924 0.3629,0 0.7087,0.0724 1.0338,0.2186 0.3249,0.1464 0.591,0.3534 0.802,0.6177 0.209,0.2659 0.3742,0.5852 0.4921,0.9595 0.1198,0.3727 0.1787,0.7737 0.1787,1.1992 0,1.0111 -0.2508,1.794 -0.7507,2.3451 -0.5017,0.553 -1.1022,0.8287 -1.8035,0.8287 -0.6975,0 -1.2447,-0.2908 -1.6419,-0.8704 z m -0.0114,-3.0024 c 0,0.7068 0.097,1.218 0.2889,1.5336 0.3153,0.5149 0.7412,0.7734 1.2788,0.7734 0.4391,0 0.8173,-0.1901 1.1345,-0.5702 0.3193,-0.3801 0.479,-0.9465 0.479,-1.699 0,-0.7716 -0.152,-1.3396 -0.4579,-1.7065 -0.3061,-0.3666 -0.6766,-0.5511 -1.1099,-0.5511 -0.439,0 -0.8172,0.19 -1.1345,0.5701 -0.3193,0.3801 -0.4789,0.9294 -0.4789,1.6497 z m 5.0531,0.0436 c 0,-1.0927 0.304,-1.9024 0.914,-2.4286 0.5073,-0.4372 1.1287,-0.6558 1.8604,-0.6558 0.8114,0 1.4765,0.2661 1.9935,0.7982 0.5149,0.5303 0.7734,1.2656 0.7734,2.2026 0,0.76 -0.1139,1.3568 -0.342,1.7919 -0.2281,0.4354 -0.5606,0.7734 -0.9976,1.015 -0.4353,0.2413 -0.9122,0.3611 -1.4273,0.3611 -0.8284,0 -1.4974,-0.2643 -2.0086,-0.7946 -0.5112,-0.5302 -0.7658,-1.2941 -0.7658,-2.2898 z m 1.0261,0.002 c 0,0.7565 0.1652,1.3227 0.4959,1.697 0.3325,0.3764 0.7488,0.5646 1.2524,0.5646 0.498,0 0.9122,-0.1882 1.2447,-0.5664 0.3307,-0.3783 0.4961,-0.954 0.4961,-1.7274 0,-0.7298 -0.1673,-1.2828 -0.4998,-1.6571 -0.3326,-0.3764 -0.747,-0.5646 -1.241,-0.5646 -0.5036,0 -0.9199,0.1864 -1.2524,0.5607 -0.3307,0.3745 -0.4959,0.9388 -0.4959,1.6932 z m 7.8693,2.062 0.1369,0.8855 c -0.2813,0.059 -0.534,0.0894 -0.7544,0.0894 -0.3632,0 -0.6444,-0.0571 -0.8458,-0.1729 -0.1996,-0.116 -0.3402,-0.2662 -0.4219,-0.4544 -0.0817,-0.1879 -0.1216,-0.5833 -0.1216,-1.1857 v -3.4093 h -0.7412 v -0.7753 h 0.7412 v -1.4633 l 1.0034,-0.6024 v 2.0657 h 1.0034 v 0.7753 h -1.0034 v 3.4664 c 0,0.2868 0.0172,0.4712 0.0531,0.5529 0.0344,0.0817 0.0915,0.1464 0.1713,0.1959 0.0796,0.0473 0.1937,0.0721 0.342,0.0721 0.1102,0 0.2564,-0.0134 0.437,-0.0399 z m 0.9901,-6.1286 v -1.1403 h 1.0034 v 1.1403 z m 0,7.0236 v -5.9177 h 1.0034 v 5.9177 z m 6.3985,-2.1664 0.9807,0.1369 c -0.1084,0.6746 -0.382,1.2009 -0.8247,1.5828 -0.4428,0.3822 -0.9883,0.5723 -1.6325,0.5723 -0.8075,0 -1.4575,-0.2643 -1.9478,-0.7927 -0.4922,-0.5281 -0.7375,-1.2846 -0.7375,-2.269 0,-0.6383 0.1066,-1.1953 0.3175,-1.6742 0.2109,-0.4769 0.5321,-0.8361 0.9653,-1.0737 0.4314,-0.2395 0.9008,-0.3592 1.4102,-0.3592 0.6404,0 1.1667,0.1615 1.5735,0.4866 0.4086,0.3249 0.6709,0.7866 0.7848,1.3835 l -0.969,0.1482 c -0.0933,-0.3972 -0.2567,-0.6956 -0.4943,-0.8971 -0.2355,-0.1995 -0.5207,-0.3002 -0.8551,-0.3002 -0.5054,0 -0.9159,0.1805 -1.2334,0.5416 -0.3153,0.3629 -0.4731,0.933 -0.4731,1.716 0,0.7945 0.152,1.3702 0.456,1.7294 0.306,0.3593 0.7031,0.5398 1.1915,0.5398 0.3955,0 0.724,-0.1197 0.9863,-0.3611 0.2643,-0.2395 0.4313,-0.61 0.5016,-1.1099 z m 5.701,1.4253 c -0.3724,0.3174 -0.7314,0.5397 -1.0755,0.6708 -0.3439,0.1311 -0.7126,0.1959 -1.1078,0.1959 -0.65,0 -1.1498,-0.1578 -1.4995,-0.4753 -0.3497,-0.3153 -0.5245,-0.7202 -0.5245,-1.2124 0,-0.2889 0.0666,-0.553 0.1978,-0.7925 0.1329,-0.2394 0.3058,-0.4295 0.5186,-0.5738 0.2149,-0.1444 0.4543,-0.2546 0.7221,-0.3288 0.1977,-0.0513 0.4961,-0.1007 0.8932,-0.1502 0.8096,-0.0949 1.4083,-0.2109 1.7902,-0.3439 0.004,-0.1369 0.006,-0.2241 0.006,-0.2603 0,-0.4068 -0.0951,-0.6936 -0.2852,-0.8609 -0.2564,-0.226 -0.6386,-0.3384 -1.144,-0.3384 -0.4731,0 -0.8228,0.0838 -1.047,0.249 -0.2262,0.1655 -0.3914,0.4581 -0.4998,0.88 l -0.9806,-0.1369 c 0.0893,-0.4201 0.2355,-0.76 0.4409,-1.0185 0.2051,-0.2585 0.5016,-0.4562 0.8894,-0.5968 0.3857,-0.1388 0.8361,-0.2091 1.3454,-0.2091 0.5054,0 0.9178,0.0589 1.2352,0.1787 0.3154,0.1197 0.5493,0.268 0.6976,0.4485 0.148,0.1805 0.2527,0.4087 0.3135,0.6841 0.0322,0.171 0.0494,0.4789 0.0494,0.9217 v 1.3303 c 0,0.9292 0.0209,1.5165 0.0626,1.7655 0.04,0.249 0.1235,0.4863 0.2451,0.7144 h -1.0489 c -0.1007,-0.2109 -0.1654,-0.458 -0.194,-0.7411 z m -0.0796,-2.2235 c -0.365,0.1483 -0.9121,0.2738 -1.6419,0.3764 -0.4145,0.0589 -0.7071,0.1253 -0.8781,0.1995 -0.171,0.0741 -0.3021,0.1824 -0.3952,0.323 -0.093,0.1425 -0.1406,0.3003 -0.1406,0.475 0,0.2643 0.1007,0.4867 0.304,0.6635 0.2032,0.1766 0.4998,0.2659 0.8894,0.2659 0.3857,0 0.7298,-0.0835 1.0319,-0.2527 0.3003,-0.1673 0.5226,-0.3973 0.6632,-0.688 0.1084,-0.226 0.1615,-0.5586 0.1615,-0.9976 z m 2.8408,2.9646 v -1.1402 h 1.1403 v 1.1402 z m 2.5068,-2.9588 c 0,-1.0927 0.304,-1.9024 0.9141,-2.4286 0.5072,-0.4372 1.1286,-0.6558 1.8603,-0.6558 0.8115,0 1.4765,0.2661 1.9935,0.7982 0.5149,0.5303 0.7734,1.2656 0.7734,2.2026 0,0.76 -0.1139,1.3568 -0.342,1.7919 -0.2281,0.4354 -0.5606,0.7734 -0.9976,1.015 -0.4353,0.2413 -0.9122,0.3611 -1.4273,0.3611 -0.8284,0 -1.4974,-0.2643 -2.0086,-0.7946 -0.5112,-0.5302 -0.7658,-1.2941 -0.7658,-2.2898 z m 1.0261,0.002 c 0,0.7565 0.1653,1.3227 0.4959,1.697 0.3325,0.3764 0.7488,0.5646 1.2524,0.5646 0.498,0 0.9122,-0.1882 1.2447,-0.5664 0.3307,-0.3783 0.4961,-0.954 0.4961,-1.7274 0,-0.7298 -0.1673,-1.2828 -0.4998,-1.6571 -0.3325,-0.3764 -0.747,-0.5646 -1.241,-0.5646 -0.5036,0 -0.9199,0.1864 -1.2524,0.5607 -0.3306,0.3745 -0.4959,0.9388 -0.4959,1.6932 z m 5.6801,2.957 v -5.9177 h 0.9008 v 0.9064 c 0.23,-0.42 0.4428,-0.6973 0.6384,-0.8305 0.1959,-0.1348 0.4105,-0.2014 0.6444,-0.2014 0.3381,0 0.6822,0.1065 1.0319,0.3174 l -0.3573,0.9254 c -0.2432,-0.1366 -0.4866,-0.2051 -0.7298,-0.2051 -0.2186,0 -0.4142,0.0664 -0.5871,0.1977 -0.1731,0.1311 -0.2966,0.3135 -0.3706,0.5472 -0.1123,0.3555 -0.1673,0.7449 -0.1673,1.1688 v 3.0918 z m 3.6242,0.4904 0.969,0.1369 c 0.0399,0.3 0.1541,0.5186 0.3402,0.6574 0.249,0.1842 0.5892,0.2775 1.0205,0.2775 0.4637,0 0.8229,-0.0933 1.0756,-0.2775 0.2527,-0.1843 0.424,-0.4446 0.5131,-0.7772 0.0515,-0.2035 0.0761,-0.6309 0.0724,-1.2827 -0.4391,0.5167 -0.9846,0.7752 -1.6383,0.7752 -0.8133,0 -1.4443,-0.2926 -1.8889,-0.8799 -0.4467,-0.5852 -0.669,-1.2883 -0.669,-2.1075 0,-0.5643 0.1026,-1.085 0.3061,-1.5621 0.2033,-0.4769 0.4998,-0.8437 0.8873,-1.1041 0.3878,-0.2604 0.8438,-0.3896 1.3684,-0.3896 0.6973,0 1.2733,0.2852 1.7256,0.8553 v -0.7298 h 0.9235 v 5.11 c 0,0.9217 -0.093,1.5735 -0.2812,1.9575 -0.1864,0.3839 -0.4848,0.6878 -0.8895,0.9101 -0.4065,0.2226 -0.9064,0.3347 -1.4992,0.3347 -0.7052,0 -1.2733,-0.1578 -1.7068,-0.4753 -0.4351,-0.3153 -0.6441,-0.7924 -0.6288,-1.4289 z m 0.821,-3.5499 c 0,0.7734 0.1538,1.3377 0.4617,1.6932 0.3096,0.3553 0.6955,0.534 1.1591,0.534 0.4618,0 0.8477,-0.1768 1.1612,-0.5303 0.3116,-0.3534 0.4676,-0.9082 0.4676,-1.6647 0,-0.7221 -0.1618,-1.2674 -0.4829,-1.6343 -0.3212,-0.3666 -0.7087,-0.5493 -1.161,-0.5493 -0.4466,0 -0.8249,0.1806 -1.1384,0.5416 -0.3116,0.3611 -0.4673,0.8972 -0.4673,1.6098 z m 5.9896,3.0595 v -1.1402 h 1.1403 v 1.1402 z m 3.8066,0 h -0.935 v -8.1639 h 1.0034 v 2.9131 c 0.4237,-0.5281 0.9635,-0.7924 1.6211,-0.7924 0.3629,0 0.7087,0.0724 1.0338,0.2186 0.3249,0.1464 0.591,0.3534 0.8019,0.6177 0.2091,0.2659 0.3743,0.5852 0.4922,0.9595 0.1198,0.3727 0.1787,0.7737 0.1787,1.1992 0,1.0111 -0.2508,1.794 -0.7507,2.3451 -0.5017,0.553 -1.1022,0.8287 -1.8035,0.8287 -0.6975,0 -1.2447,-0.2908 -1.6419,-0.8704 z m -0.0114,-3.0024 c 0,0.7068 0.097,1.218 0.2889,1.5336 0.3153,0.5149 0.7412,0.7734 1.2788,0.7734 0.439,0 0.8173,-0.1901 1.1345,-0.5702 0.3193,-0.3801 0.4789,-0.9465 0.4789,-1.699 0,-0.7716 -0.1519,-1.3396 -0.4578,-1.7065 -0.3061,-0.3666 -0.6766,-0.5511 -1.1099,-0.5511 -0.439,0 -0.8173,0.19 -1.1345,0.5701 -0.3193,0.3801 -0.4789,0.9294 -0.4789,1.6497 z m 5.4179,3.0024 v -5.9177 h 0.9008 v 0.9064 c 0.2299,-0.42 0.4427,-0.6973 0.6384,-0.8305 0.1958,-0.1348 0.4104,-0.2014 0.6444,-0.2014 0.338,0 0.6822,0.1065 1.0319,0.3174 l -0.3574,0.9254 c -0.2432,-0.1366 -0.4866,-0.2051 -0.7298,-0.2051 -0.2186,0 -0.4142,0.0664 -0.5871,0.1977 -0.1731,0.1311 -0.2965,0.3135 -0.3705,0.5472 -0.1124,0.3555 -0.1674,0.7449 -0.1674,1.1688 v 3.0918 z m 7.2729,2.3946 v -10.6954 h 0.8778 v 10.6954 z m 22.7378,-2.3946 -1.7882,-5.9177 h 1.0488 l 0.9447,3.4149 0.3344,1.2714 c 0.0132,-0.0627 0.116,-0.4695 0.3058,-1.2199 l 0.9371,-3.4664 h 1.0279 l 0.8913,3.436 0.2908,1.1268 0.3402,-1.1421 1.0224,-3.4207 h 0.9748 l -1.8566,5.9177 h -1.0375 l -0.9389,-3.5403 -0.2376,-1.0129 -1.1971,4.5532 z m 8.2342,0 -1.7881,-5.9177 h 1.0488 l 0.9447,3.4149 0.3344,1.2714 c 0.0132,-0.0627 0.116,-0.4695 0.3058,-1.2199 l 0.937,-3.4664 h 1.028 l 0.8913,3.436 0.2908,1.1268 0.3401,-1.1421 1.0225,-3.4207 h 0.9748 l -1.8566,5.9177 h -1.0375 l -0.9389,-3.5403 -0.2376,-1.0129 -1.1972,4.5532 z m 8.2343,0 -1.7882,-5.9177 h 1.0489 l 0.9447,3.4149 0.3343,1.2714 c 0.0133,-0.0627 0.1161,-0.4695 0.3059,-1.2199 l 0.937,-3.4664 h 1.028 l 0.8913,3.436 0.2907,1.1268 0.3402,-1.1421 1.0224,-3.4207 h 0.9749 l -1.8567,5.9177 h -1.0375 l -0.9388,-3.5403 -0.2376,-1.0129 -1.1972,4.5532 z m 6.8259,0 v -1.1402 h 1.1403 v 1.1402 z m 3.1225,0 v -5.1424 h -0.8894 v -0.7753 h 0.8894 v -0.6272 c 0,-0.397 0.0341,-0.6917 0.1044,-0.8836 0.097,-0.2585 0.2643,-0.4695 0.5075,-0.631 0.2413,-0.1615 0.5815,-0.2413 1.0187,-0.2413 0.2831,0 0.5948,0.0343 0.9368,0.1007 l -0.1501,0.8781 c -0.2091,-0.0362 -0.4047,-0.0553 -0.5911,-0.0553 -0.304,0 -0.5188,0.0648 -0.646,0.194 -0.1255,0.1293 -0.1882,0.3706 -0.1882,0.724 v 0.5416 h 1.1517 v 0.7753 h -1.1403 v 5.1424 z m 3.852,0 h -0.9349 v -8.1639 h 1.0034 v 2.9131 c 0.4237,-0.5281 0.9634,-0.7924 1.6211,-0.7924 0.3629,0 0.7086,0.0724 1.0337,0.2186 0.3249,0.1464 0.5911,0.3534 0.802,0.6177 0.2091,0.2659 0.3743,0.5852 0.4922,0.9595 0.1197,0.3727 0.1787,0.7737 0.1787,1.1992 0,1.0111 -0.2509,1.794 -0.7507,2.3451 -0.5017,0.553 -1.1022,0.8287 -1.8035,0.8287 -0.6975,0 -1.2447,-0.2908 -1.642,-0.8704 z m -0.0114,-3.0024 c 0,0.7068 0.097,1.218 0.2889,1.5336 0.3154,0.5149 0.7412,0.7734 1.2789,0.7734 0.439,0 0.8172,-0.1901 1.1345,-0.5702 0.3193,-0.3801 0.4789,-0.9465 0.4789,-1.699 0,-0.7716 -0.152,-1.3396 -0.4578,-1.7065 -0.3061,-0.3666 -0.6767,-0.5511 -1.1099,-0.5511 -0.4391,0 -0.8173,0.19 -1.1345,0.5701 -0.3193,0.3801 -0.479,0.9294 -0.479,1.6497 z m 5.7143,3.0024 v -1.1402 h 1.1402 v 1.1402 z m 6.7482,-2.1664 0.9806,0.1369 c -0.1083,0.6746 -0.3819,1.2009 -0.8247,1.5828 -0.4427,0.3822 -0.9883,0.5723 -1.6324,0.5723 -0.8076,0 -1.4575,-0.2643 -1.9479,-0.7927 -0.4921,-0.5281 -0.7374,-1.2846 -0.7374,-2.269 0,-0.6383 0.1065,-1.1953 0.3174,-1.6742 0.211,-0.4769 0.5321,-0.8361 0.9653,-1.0737 0.4314,-0.2395 0.9009,-0.3592 1.4102,-0.3592 0.6405,0 1.1668,0.1615 1.5735,0.4866 0.4087,0.3249 0.6709,0.7866 0.7848,1.3835 l -0.969,0.1482 c -0.0933,-0.3972 -0.2567,-0.6956 -0.4943,-0.8971 -0.2355,-0.1995 -0.5207,-0.3002 -0.8551,-0.3002 -0.5054,0 -0.9159,0.1805 -1.2333,0.5416 -0.3154,0.3629 -0.4732,0.933 -0.4732,1.716 0,0.7945 0.152,1.3702 0.456,1.7294 0.3061,0.3593 0.7031,0.5398 1.1916,0.5398 0.3954,0 0.724,-0.1197 0.9862,-0.3611 0.2643,-0.2395 0.4314,-0.61 0.5017,-1.1099 z m 1.4596,-0.7924 c 0,-1.0927 0.304,-1.9024 0.914,-2.4286 0.5073,-0.4372 1.1287,-0.6558 1.8604,-0.6558 0.8114,0 1.4765,0.2661 1.9935,0.7982 0.5149,0.5303 0.7734,1.2656 0.7734,2.2026 0,0.76 -0.1139,1.3568 -0.342,1.7919 -0.2281,0.4354 -0.5607,0.7734 -0.9976,1.015 -0.4353,0.2413 -0.9122,0.3611 -1.4273,0.3611 -0.8285,0 -1.4975,-0.2643 -2.0087,-0.7946 -0.5112,-0.5302 -0.7657,-1.2941 -0.7657,-2.2898 z m 1.0261,0.002 c 0,0.7565 0.1652,1.3227 0.4959,1.697 0.3325,0.3764 0.7488,0.5646 1.2524,0.5646 0.4979,0 0.9121,-0.1882 1.2447,-0.5664 0.3306,-0.3783 0.4961,-0.954 0.4961,-1.7274 0,-0.7298 -0.1673,-1.2828 -0.4999,-1.6571 -0.3325,-0.3764 -0.7469,-0.5646 -1.2409,-0.5646 -0.5036,0 -0.9199,0.1864 -1.2524,0.5607 -0.3307,0.3745 -0.4959,0.9388 -0.4959,1.6932 z m 5.6915,2.957 v -5.9177 h 0.9008 v 0.8361 c 0.1842,-0.2889 0.4314,-0.5226 0.7393,-0.6973 0.3077,-0.1768 0.6574,-0.2643 1.0507,-0.2643 0.4372,0 0.7964,0.0912 1.0758,0.2717 0.2791,0.1826 0.4768,0.4353 0.591,0.7621 0.4713,-0.6897 1.0811,-1.0338 1.8337,-1.0338 0.5891,0 1.0433,0.1615 1.3588,0.4866 0.3175,0.3249 0.4769,0.8247 0.4769,1.4993 v 4.0573 h -1.0034 v -3.7246 c 0,-0.3991 -0.0341,-0.688 -0.0986,-0.8648 -0.0647,-0.1766 -0.1826,-0.3172 -0.3555,-0.4256 -0.171,-0.1084 -0.3724,-0.1615 -0.6024,-0.1615 -0.4181,0 -0.7639,0.1388 -1.0396,0.4142 -0.2754,0.2775 -0.4123,0.7203 -0.4123,1.3285 v 3.4338 h -1.0034 v -3.8406 c 0,-0.4446 -0.0817,-0.7792 -0.245,-1.0015 -0.1636,-0.2223 -0.4314,-0.3344 -0.802,-0.3344 -0.2813,0 -0.5416,0.074 -0.7811,0.2223 -0.2395,0.1483 -0.4123,0.3648 -0.5207,0.6518 -0.1065,0.285 -0.1597,0.6976 -0.1597,1.2352 v 3.0672 z m 8.7454,0.137 2.3716,-8.4378 h 0.8077 l -2.3715,8.4378 z m 3.5214,-1.9042 0.992,-0.1597 c 0.0552,0.397 0.2109,0.7013 0.4657,0.914 0.2546,0.211 0.6119,0.3175 1.0679,0.3175 0.4618,0 0.8038,-0.0933 1.0282,-0.2813 0.2223,-0.1863 0.3344,-0.4067 0.3344,-0.6594 0,-0.2263 -0.1007,-0.405 -0.3003,-0.534 -0.1406,-0.0893 -0.4826,-0.2014 -1.0261,-0.3402 -0.7335,-0.1844 -1.241,-0.3441 -1.526,-0.4789 -0.2833,-0.1369 -0.4979,-0.323 -0.6444,-0.5625 -0.1461,-0.2376 -0.2204,-0.5017 -0.2204,-0.7906 0,-0.2641 0.0608,-0.5075 0.1805,-0.7316 0.1216,-0.2242 0.2852,-0.4105 0.4922,-0.5588 0.1559,-0.114 0.3687,-0.211 0.6368,-0.2908 0.2698,-0.0798 0.5566,-0.1197 0.8646,-0.1197 0.4636,0 0.8704,0.0666 1.2201,0.2014 0.3515,0.1332 0.61,0.3156 0.7771,0.5437 0.1655,0.23 0.2813,0.5358 0.3441,0.9196 l -0.9806,0.1369 c -0.0439,-0.3079 -0.1729,-0.5492 -0.3859,-0.7221 -0.2128,-0.1729 -0.5131,-0.2585 -0.9027,-0.2585 -0.4578,0 -0.7866,0.0761 -0.9825,0.2281 -0.1956,0.152 -0.2944,0.3307 -0.2944,0.5339 0,0.1293 0.0399,0.2472 0.1216,0.3516 0.0816,0.1065 0.209,0.1958 0.3838,0.2661 0.1007,0.0381 0.3935,0.1235 0.8836,0.2565 0.7071,0.1881 1.2011,0.3441 1.4823,0.4638 0.2813,0.1198 0.5017,0.2963 0.6614,0.5245 0.1615,0.2299 0.2413,0.5149 0.2413,0.8569 0,0.3328 -0.0967,0.6463 -0.2926,0.9407 -0.1956,0.2947 -0.4769,0.5226 -0.8437,0.6841 -0.3688,0.1618 -0.7848,0.2416 -1.2487,0.2416 -0.7676,0 -1.3549,-0.1597 -1.7578,-0.4771 -0.4028,-0.3193 -0.6594,-0.7906 -0.7715,-1.4157 z m 9.9653,1.0261 c -0.3724,0.3174 -0.7314,0.5397 -1.0755,0.6708 -0.3439,0.1311 -0.7126,0.1959 -1.1078,0.1959 -0.65,0 -1.1498,-0.1578 -1.4995,-0.4753 -0.3497,-0.3153 -0.5245,-0.7202 -0.5245,-1.2124 0,-0.2889 0.0666,-0.553 0.1978,-0.7925 0.1329,-0.2394 0.3058,-0.4295 0.5186,-0.5738 0.2149,-0.1444 0.4543,-0.2546 0.7221,-0.3288 0.1977,-0.0513 0.4961,-0.1007 0.8932,-0.1502 0.8096,-0.0949 1.4083,-0.2109 1.7902,-0.3439 0.004,-0.1369 0.006,-0.2241 0.006,-0.2603 0,-0.4068 -0.0951,-0.6936 -0.2852,-0.8609 -0.2564,-0.226 -0.6385,-0.3384 -1.144,-0.3384 -0.4731,0 -0.8228,0.0838 -1.047,0.249 -0.2262,0.1655 -0.3914,0.4581 -0.4998,0.88 l -0.9806,-0.1369 c 0.0893,-0.4201 0.2355,-0.76 0.4409,-1.0185 0.2051,-0.2585 0.5017,-0.4562 0.8894,-0.5968 0.3857,-0.1388 0.8361,-0.2091 1.3454,-0.2091 0.5054,0 0.9178,0.0589 1.2352,0.1787 0.3154,0.1197 0.5493,0.268 0.6976,0.4485 0.148,0.1805 0.2527,0.4087 0.3135,0.6841 0.0322,0.171 0.0494,0.4789 0.0494,0.9217 v 1.3303 c 0,0.9292 0.0209,1.5165 0.0626,1.7655 0.04,0.249 0.1235,0.4863 0.2451,0.7144 h -1.0489 c -0.1007,-0.2109 -0.1654,-0.458 -0.194,-0.7411 z m -0.0796,-2.2235 c -0.365,0.1483 -0.9121,0.2738 -1.6419,0.3764 -0.4145,0.0589 -0.7071,0.1253 -0.8781,0.1995 -0.171,0.0741 -0.3021,0.1824 -0.3952,0.323 -0.093,0.1425 -0.1406,0.3003 -0.1406,0.475 0,0.2643 0.1007,0.4867 0.304,0.6635 0.2032,0.1766 0.4998,0.2659 0.8894,0.2659 0.3857,0 0.7298,-0.0835 1.0319,-0.2527 0.3003,-0.1673 0.5226,-0.3973 0.6632,-0.688 0.1084,-0.226 0.1615,-0.5586 0.1615,-0.9976 z m 2.5331,2.9646 v -8.1639 h 1.0034 v 8.1639 z"
           style="fill:#1b1918;fill-rule:evenodd"
           id="path152"
           inkscape:connector-curvature="0" />
        <path
           d="m 264.4791,194.4025 c -0.3725,0.3174 -0.7315,0.5397 -1.0756,0.6708 -0.3439,0.1311 -0.7126,0.1959 -1.1078,0.1959 -0.65,0 -1.1498,-0.1578 -1.4995,-0.4753 -0.3497,-0.3153 -0.5244,-0.7202 -0.5244,-1.2124 0,-0.2889 0.0666,-0.553 0.1977,-0.7925 0.1329,-0.2394 0.3058,-0.4295 0.5186,-0.5738 0.2149,-0.1444 0.4544,-0.2546 0.7221,-0.3288 0.1977,-0.0513 0.4962,-0.1007 0.8932,-0.1502 0.8096,-0.0949 1.4083,-0.2109 1.7903,-0.3439 0.004,-0.1369 0.006,-0.2241 0.006,-0.2603 0,-0.4068 -0.0952,-0.6936 -0.2852,-0.8609 -0.2564,-0.226 -0.6386,-0.3384 -1.144,-0.3384 -0.4732,0 -0.8229,0.0838 -1.047,0.249 -0.2263,0.1655 -0.3915,0.4581 -0.4999,0.88 l -0.9806,-0.1369 c 0.0893,-0.4201 0.2355,-0.76 0.4409,-1.0185 0.2051,-0.2585 0.5017,-0.4562 0.8894,-0.5968 0.3857,-0.1388 0.8361,-0.2091 1.3454,-0.2091 0.5055,0 0.9178,0.0589 1.2352,0.1787 0.3154,0.1197 0.5493,0.268 0.6976,0.4485 0.148,0.1805 0.2527,0.4087 0.3135,0.6841 0.0322,0.171 0.0494,0.4789 0.0494,0.9217 v 1.3303 c 0,0.9292 0.0209,1.5165 0.0627,1.7655 0.0399,0.249 0.1234,0.4863 0.245,0.7144 h -1.0489 c -0.1007,-0.2109 -0.1654,-0.458 -0.1939,-0.7411 z m -0.0796,-2.2235 c -0.3651,0.1483 -0.9122,0.2738 -1.642,0.3764 -0.4145,0.0589 -0.7071,0.1253 -0.8781,0.1995 -0.171,0.0741 -0.3021,0.1824 -0.3952,0.323 -0.093,0.1425 -0.1406,0.3003 -0.1406,0.475 0,0.2643 0.1007,0.4867 0.304,0.6635 0.2033,0.1766 0.4998,0.2659 0.8894,0.2659 0.3857,0 0.7298,-0.0835 1.032,-0.2527 0.3002,-0.1673 0.5225,-0.3973 0.6632,-0.688 0.1083,-0.226 0.1615,-0.5586 0.1615,-0.9976 z m 2.1796,0.006 c 0,-1.0927 0.304,-1.9024 0.914,-2.4286 0.5073,-0.4372 1.1287,-0.6558 1.8604,-0.6558 0.8115,0 1.4765,0.2661 1.9935,0.7982 0.5149,0.5303 0.7734,1.2656 0.7734,2.2026 0,0.76 -0.1139,1.3568 -0.342,1.7919 -0.2281,0.4354 -0.5606,0.7734 -0.9976,1.015 -0.4353,0.2413 -0.9122,0.3611 -1.4273,0.3611 -0.8284,0 -1.4974,-0.2643 -2.0086,-0.7946 -0.5112,-0.5302 -0.7658,-1.2941 -0.7658,-2.2898 z m 1.0261,0.002 c 0,0.7565 0.1652,1.3227 0.4959,1.697 0.3325,0.3764 0.7488,0.5646 1.2524,0.5646 0.498,0 0.9122,-0.1882 1.2447,-0.5664 0.3307,-0.3783 0.4961,-0.954 0.4961,-1.7274 0,-0.7298 -0.1673,-1.2828 -0.4998,-1.6571 -0.3325,-0.3764 -0.747,-0.5646 -1.241,-0.5646 -0.5036,0 -0.9199,0.1864 -1.2524,0.5607 -0.3307,0.3745 -0.4959,0.9388 -0.4959,1.6932 z m 9.5113,2.957 v -0.7506 c -0.3743,0.5833 -0.9255,0.8762 -1.6534,0.8762 -0.4713,0 -0.9045,-0.1293 -1.2979,-0.3896 -0.3954,-0.2585 -0.7012,-0.6215 -0.9198,-1.0853 -0.2167,-0.4655 -0.3249,-0.9995 -0.3249,-1.6037 0,-0.5892 0.0987,-1.1231 0.2945,-1.6039 0.1977,-0.479 0.4922,-0.8477 0.8855,-1.1023 0.3915,-0.2566 0.8324,-0.384 1.3171,-0.384 0.3571,0 0.6746,0.0761 0.9519,0.2262 0.2775,0.1502 0.5038,0.3479 0.6785,0.5892 v -2.9361 h 1.0034 v 8.1639 z m -3.1698,-2.9512 c 0,0.7563 0.1596,1.3206 0.4808,1.6952 0.3193,0.3743 0.6973,0.5606 1.1326,0.5606 0.439,0 0.8115,-0.1787 1.1192,-0.536 0.306,-0.3572 0.4599,-0.9027 0.4599,-1.6362 0,-0.8057 -0.1557,-1.3986 -0.4694,-1.7768 -0.3117,-0.3783 -0.6974,-0.5665 -1.1554,-0.5665 -0.4465,0 -0.8189,0.1806 -1.1192,0.5437 -0.2984,0.363 -0.4485,0.935 -0.4485,1.716 z m 9.7279,1.0357 1.0375,0.1369 c -0.1615,0.6024 -0.4636,1.0718 -0.9045,1.4043 -0.4409,0.3326 -1.0034,0.4999 -1.6896,0.4999 -0.8627,0 -1.5468,-0.2662 -2.0522,-0.7983 -0.5056,-0.5302 -0.7583,-1.2769 -0.7583,-2.2367 0,-0.992 0.2545,-1.7636 0.7657,-2.311 0.5112,-0.549 1.1747,-0.8228 1.9898,-0.8228 0.7885,0 1.4329,0.268 1.9328,0.8059 0.4996,0.5377 0.7504,1.2941 0.7504,2.269 0,0.0589 -0.002,0.1482 -0.005,0.2661 h -4.4071 c 0.038,0.6479 0.2204,1.1459 0.5511,1.4898 0.3288,0.3439 0.7412,0.517 1.2333,0.517 0.3669,0 0.6804,-0.097 0.9389,-0.2908 0.2604,-0.194 0.4655,-0.5037 0.6177,-0.9293 z m -3.2839,-1.6077 h 3.2953 c -0.0439,-0.4979 -0.171,-0.8704 -0.3782,-1.1194 -0.3175,-0.3856 -0.7317,-0.5796 -1.2392,-0.5796 -0.4597,0 -0.8456,0.1541 -1.1591,0.4618 -0.3116,0.3079 -0.4847,0.7202 -0.5188,1.2372 z m 5.5775,3.5232 v -5.9177 h 0.9008 v 0.9064 c 0.23,-0.42 0.4428,-0.6973 0.6384,-0.8305 0.1958,-0.1348 0.4105,-0.2014 0.6444,-0.2014 0.3381,0 0.6822,0.1065 1.0319,0.3174 l -0.3574,0.9254 c -0.2431,-0.1366 -0.4866,-0.2051 -0.7297,-0.2051 -0.2186,0 -0.4143,0.0664 -0.5871,0.1977 -0.1731,0.1311 -0.2966,0.3135 -0.3706,0.5472 -0.1123,0.3555 -0.1673,0.7449 -0.1673,1.1688 v 3.0918 z m 3.4322,-2.9588 c 0,-1.0927 0.304,-1.9024 0.9141,-2.4286 0.5072,-0.4372 1.1287,-0.6558 1.8603,-0.6558 0.8115,0 1.4765,0.2661 1.9936,0.7982 0.5149,0.5303 0.7734,1.2656 0.7734,2.2026 0,0.76 -0.114,1.3568 -0.3421,1.7919 -0.2281,0.4354 -0.5606,0.7734 -0.9975,1.015 -0.4354,0.2413 -0.9122,0.3611 -1.4274,0.3611 -0.8284,0 -1.4974,-0.2643 -2.0086,-0.7946 -0.5112,-0.5302 -0.7658,-1.2941 -0.7658,-2.2898 z m 1.0262,0.002 c 0,0.7565 0.1652,1.3227 0.4958,1.697 0.3326,0.3764 0.7489,0.5646 1.2524,0.5646 0.498,0 0.9122,-0.1882 1.2447,-0.5664 0.3307,-0.3783 0.4962,-0.954 0.4962,-1.7274 0,-0.7298 -0.1674,-1.2828 -0.4999,-1.6571 -0.3325,-0.3764 -0.7469,-0.5646 -1.241,-0.5646 -0.5035,0 -0.9198,0.1864 -1.2524,0.5607 -0.3306,0.3745 -0.4958,0.9388 -0.4958,1.6932 z m 6.615,2.957 h -0.9349 v -8.1639 h 1.0033 v 2.9131 c 0.4238,-0.5281 0.9635,-0.7924 1.6211,-0.7924 0.363,0 0.7087,0.0724 1.0338,0.2186 0.3249,0.1464 0.591,0.3534 0.802,0.6177 0.2091,0.2659 0.3743,0.5852 0.4922,0.9595 0.1197,0.3727 0.1786,0.7737 0.1786,1.1992 0,1.0111 -0.2508,1.794 -0.7506,2.3451 -0.5017,0.553 -1.1023,0.8287 -1.8035,0.8287 -0.6976,0 -1.2447,-0.2908 -1.642,-0.8704 z m -0.0114,-3.0024 c 0,0.7068 0.097,1.218 0.2889,1.5336 0.3154,0.5149 0.7412,0.7734 1.2788,0.7734 0.4391,0 0.8173,-0.1901 1.1345,-0.5702 0.3193,-0.3801 0.479,-0.9465 0.479,-1.699 0,-0.7716 -0.152,-1.3396 -0.4579,-1.7065 -0.306,-0.3666 -0.6766,-0.5511 -1.1098,-0.5511 -0.4391,0 -0.8173,0.19 -1.1345,0.5701 -0.3193,0.3801 -0.479,0.9294 -0.479,1.6497 z m 5.0531,0.0436 c 0,-1.0927 0.304,-1.9024 0.9141,-2.4286 0.5072,-0.4372 1.1286,-0.6558 1.8603,-0.6558 0.8115,0 1.4765,0.2661 1.9935,0.7982 0.515,0.5303 0.7735,1.2656 0.7735,2.2026 0,0.76 -0.114,1.3568 -0.3421,1.7919 -0.2281,0.4354 -0.5606,0.7734 -0.9976,1.015 -0.4353,0.2413 -0.9122,0.3611 -1.4273,0.3611 -0.8284,0 -1.4974,-0.2643 -2.0086,-0.7946 -0.5112,-0.5302 -0.7658,-1.2941 -0.7658,-2.2898 z m 1.0261,0.002 c 0,0.7565 0.1653,1.3227 0.4959,1.697 0.3326,0.3764 0.7489,0.5646 1.2524,0.5646 0.498,0 0.9122,-0.1882 1.2447,-0.5664 0.3307,-0.3783 0.4961,-0.954 0.4961,-1.7274 0,-0.7298 -0.1673,-1.2828 -0.4998,-1.6571 -0.3325,-0.3764 -0.747,-0.5646 -1.241,-0.5646 -0.5035,0 -0.9198,0.1864 -1.2524,0.5607 -0.3306,0.3745 -0.4959,0.9388 -0.4959,1.6932 z m 7.8693,2.062 0.1369,0.8855 c -0.2812,0.059 -0.5339,0.0894 -0.7544,0.0894 -0.3631,0 -0.6444,-0.0571 -0.8458,-0.1729 -0.1996,-0.116 -0.3402,-0.2662 -0.4219,-0.4544 -0.0817,-0.1879 -0.1216,-0.5833 -0.1216,-1.1857 v -3.4093 h -0.7411 v -0.7753 h 0.7411 v -1.4633 l 1.0034,-0.6024 v 2.0657 h 1.0034 v 0.7753 h -1.0034 v 3.4664 c 0,0.2868 0.0172,0.4712 0.0532,0.5529 0.0343,0.0817 0.0914,0.1464 0.1712,0.1959 0.0796,0.0473 0.1938,0.0721 0.342,0.0721 0.1103,0 0.2565,-0.0134 0.437,-0.0399 z m 0.9901,-6.1286 v -1.1403 h 1.0034 v 1.1403 z m 0,7.0236 v -5.9177 h 1.0034 v 5.9177 z m 6.3986,-2.1664 0.9806,0.1369 c -0.1084,0.6746 -0.3819,1.2009 -0.8247,1.5828 -0.4427,0.3822 -0.9883,0.5723 -1.6325,0.5723 -0.8075,0 -1.4575,-0.2643 -1.9478,-0.7927 -0.4922,-0.5281 -0.7374,-1.2846 -0.7374,-2.269 0,-0.6383 0.1065,-1.1953 0.3174,-1.6742 0.2109,-0.4769 0.5321,-0.8361 0.9653,-1.0737 0.4314,-0.2395 0.9009,-0.3592 1.4102,-0.3592 0.6405,0 1.1667,0.1615 1.5735,0.4866 0.4087,0.3249 0.6709,0.7866 0.7848,1.3835 l -0.969,0.1482 c -0.0933,-0.3972 -0.2567,-0.6956 -0.4943,-0.8971 -0.2355,-0.1995 -0.5207,-0.3002 -0.8551,-0.3002 -0.5054,0 -0.9159,0.1805 -1.2333,0.5416 -0.3154,0.3629 -0.4732,0.933 -0.4732,1.716 0,0.7945 0.152,1.3702 0.456,1.7294 0.3061,0.3593 0.7031,0.5398 1.1916,0.5398 0.3954,0 0.724,-0.1197 0.9862,-0.3611 0.2643,-0.2395 0.4314,-0.61 0.5017,-1.1099 z m 5.701,1.4253 c -0.3725,0.3174 -0.7315,0.5397 -1.0756,0.6708 -0.3439,0.1311 -0.7126,0.1959 -1.1078,0.1959 -0.65,0 -1.1498,-0.1578 -1.4995,-0.4753 -0.3497,-0.3153 -0.5244,-0.7202 -0.5244,-1.2124 0,-0.2889 0.0666,-0.553 0.1977,-0.7925 0.1329,-0.2394 0.3058,-0.4295 0.5186,-0.5738 0.2149,-0.1444 0.4544,-0.2546 0.7221,-0.3288 0.1978,-0.0513 0.4962,-0.1007 0.8932,-0.1502 0.8096,-0.0949 1.4083,-0.2109 1.7903,-0.3439 0.004,-0.1369 0.006,-0.2241 0.006,-0.2603 0,-0.4068 -0.0952,-0.6936 -0.2852,-0.8609 -0.2564,-0.226 -0.6386,-0.3384 -1.144,-0.3384 -0.4732,0 -0.8229,0.0838 -1.047,0.249 -0.2263,0.1655 -0.3915,0.4581 -0.4999,0.88 l -0.9806,-0.1369 c 0.0893,-0.4201 0.2355,-0.76 0.4409,-1.0185 0.2051,-0.2585 0.5017,-0.4562 0.8894,-0.5968 0.3857,-0.1388 0.8361,-0.2091 1.3455,-0.2091 0.5054,0 0.9177,0.0589 1.2351,0.1787 0.3154,0.1197 0.5493,0.268 0.6976,0.4485 0.148,0.1805 0.2527,0.4087 0.3135,0.6841 0.0322,0.171 0.0494,0.4789 0.0494,0.9217 v 1.3303 c 0,0.9292 0.0209,1.5165 0.0627,1.7655 0.0399,0.249 0.1234,0.4863 0.245,0.7144 h -1.0489 c -0.1007,-0.2109 -0.1654,-0.458 -0.1939,-0.7411 z m -0.0796,-2.2235 c -0.3651,0.1483 -0.9122,0.2738 -1.642,0.3764 -0.4145,0.0589 -0.7071,0.1253 -0.8781,0.1995 -0.171,0.0741 -0.3021,0.1824 -0.3952,0.323 -0.093,0.1425 -0.1406,0.3003 -0.1406,0.475 0,0.2643 0.1007,0.4867 0.304,0.6635 0.2033,0.1766 0.4998,0.2659 0.8894,0.2659 0.3857,0 0.7298,-0.0835 1.032,-0.2527 0.3002,-0.1673 0.5225,-0.3973 0.6632,-0.688 0.1083,-0.226 0.1615,-0.5586 0.1615,-0.9976 z"
           style="fill:#1b1918;fill-rule:evenodd"
           id="path154"
           inkscape:connector-curvature="0" />
      </g>
      <path
         d="m 167.0026,186.1521 h 9.1858 c 0.2515,0 0.4573,0.2058 0.4573,0.4574 v 9.1858 c 0,0.2515 -0.2058,0.4574 -0.4573,0.4574 h -2.6712 l -5e-4,-3.9067 1.3101,-0.005 0.1971,-1.523 -1.503,-0.004 0.005,-1.1518 c 0.0416,-0.3693 0.2327,-0.5213 0.6066,-0.5528 0.2954,-0.0249 0.5991,0.004 0.8698,-0.006 0.066,-0.002 0.071,0.002 0.077,-0.062 0.003,-0.034 -0.002,-0.108 -0.002,-0.1467 -6e-4,-0.19 0.0113,-1.0408 -0.005,-1.1526 -0.3007,-0.0728 -1.189,-0.0805 -1.5085,-0.0437 -0.866,0.0996 -1.4786,0.7131 -1.5932,1.5691 -0.0688,0.5139 0.009,1.2079 -0.0362,1.5458 l -1.3045,0.002 -0.006,1.5261 1.3161,9e-4 -1e-4,3.9101 h -4.9374 c -0.2516,0 -0.4574,-0.2059 -0.4574,-0.4574 v -9.1858 c 0,-0.2516 0.2058,-0.4574 0.4574,-0.4574 z"
         style="fill:#1b1918;fill-rule:evenodd"
         id="path157"
         inkscape:connector-curvature="0" />
    </g>
    <g
       id="Layer1003">
      <path
         d="m 155.4576,74.5494 2.3957,1.8383 20.7378,-27.0352 -0.5797,-4.4677 z"
         style="fill:#cccccc;fill-rule:evenodd"
         id="path160"
         inkscape:connector-curvature="0" />
      <path
         d="m 151.0051,72.7854 c -3.163,1.0795 -4.8523,4.5198 -3.7728,7.6829 0.3975,1.163 1.1133,2.1266 2.0174,2.8271 l -7e-4,5e-4 0.007,0.0049 c 0.2686,0.2074 0.5539,0.3914 0.8519,0.5508 l 13.0126,8.4178 3.8629,-6.1655 -9.3801,-11.4766 v 7e-4 c -1.5597,-1.8623 -4.1604,-2.6737 -6.598,-1.8426 z"
         style="fill:#666666;fill-rule:evenodd"
         id="path162"
         inkscape:connector-curvature="0" />
      <path
         d="m 151.9613,75.5879 c -1.6155,0.5513 -2.4772,2.3081 -1.9259,3.9242 0.5513,1.6168 2.3076,2.4793 3.9237,1.9278 1.6167,-0.552 2.4798,-2.3081 1.9278,-3.9249 -0.5513,-1.6162 -2.3088,-2.4791 -3.9256,-1.9271 z"
         style="fill:#cccccc;fill-rule:evenodd"
         id="path164"
         inkscape:connector-curvature="0" />
      <path
         d="m 152.4716,77.0819 c -0.7905,0.2699 -1.2132,1.1298 -0.9432,1.9211 0.2698,0.7906 1.1298,1.2132 1.9211,0.9434 0.7917,-0.2698 1.2132,-1.1305 0.9432,-1.9211 -0.2699,-0.7905 -1.1291,-1.2139 -1.9211,-0.9434 z"
         style="fill:#ffffff;fill-rule:evenodd"
         id="path166"
         inkscape:connector-curvature="0" />
      <path
         d="m 208.7458,64.5382 c -8.295,6.1618 -20.0569,4.4259 -26.218,-3.8693 -6.162,-8.2945 -4.4261,-20.0562 3.8696,-26.2175 8.2945,-6.1618 20.0558,-4.426 26.2177,3.869 6.1611,8.2945 4.4259,20.0559 -3.8693,26.2178 z M 185.4847,33.2234 c -8.9722,6.6648 -10.8491,19.3859 -4.1849,28.3576 6.6648,8.9717 19.3859,10.8493 28.3582,4.1845 8.9716,-6.6643 10.8485,-19.3848 4.1844,-28.3572 -6.6648,-8.9715 -19.3854,-10.8491 -28.3577,-4.1849 z"
         style="fill:#666666;fill-rule:evenodd"
         id="path168"
         inkscape:connector-curvature="0" />
      <path
         d="m 233.067,47.9754 -0.1123,0.0374 -0.0772,0.0264 -34.0558,11.381 -5.0891,-18.7371 33.8147,-9.0661 c 1.9118,-0.6256 4.0483,-0.5894 6.0453,0.2553 4.3905,1.8565 6.4446,6.9223 4.588,11.3135 -0.9893,2.3393 -2.8895,4.0149 -5.1136,4.7896 z"
         style="fill:#999999;fill-rule:evenodd"
         id="path170"
         inkscape:connector-curvature="0" />
      <path
         d="M 257.9621,48.6034 242.9715,64.8682 233.357,56.0069 248.3471,39.7423 Z"
         style="fill:#808080;fill-rule:evenodd"
         id="path172"
         inkscape:connector-curvature="0" />
      <path
         d="m 156.1696,133.1715 c -0.2036,0.3492 -0.4213,0.6896 -0.6508,1.0201 l -0.004,0.006 v 0 c -2.6093,0.46 -9.2323,-1.0041 -14.3325,1.5432 -8.5257,0.3062 -7.8332,-5.9636 -8.1399,-14.4888 -0.1313,-3.6599 -4.6261,-2.3879 -2.5927,-5.11 l -0.002,-0.001 0.0184,-0.0208 c 0.2393,-0.3196 0.4902,-0.6293 0.7532,-0.9299 l 57.5581,-70.9569 0.002,0.0012 c 1.199,-1.6143 2.8943,-2.8846 4.9534,-3.5519 5.2663,-1.7065 10.919,1.1788 12.6261,6.447 0.8611,2.6584 0.5515,5.4159 -0.6446,7.7143 l 0.003,0.0024 -0.0238,0.0381 c -0.2504,0.4759 -0.538,0.9317 -0.8619,1.3622 z"
         style="fill:#cccccc;fill-rule:evenodd"
         id="path174"
         inkscape:connector-curvature="0" />
      <path
         d="m 144.0674,116.9094 c 4.6861,0.7209 7.9007,5.1051 7.1793,9.7912 -0.7212,4.6862 -5.1056,7.9001 -9.7916,7.1794 -4.6861,-0.7213 -7.9002,-5.1056 -7.1795,-9.7918 0.7219,-4.6854 5.1058,-7.9 9.7918,-7.1788 z"
         style="fill:#000000;fill-rule:evenodd"
         id="path176"
         inkscape:connector-curvature="0" />
      <path
         d="m 194.9262,50.3675 c -0.6275,-1.2812 -0.098,-2.8269 1.1832,-3.4556 1.2807,-0.6275 2.8271,-0.0988 3.4551,1.1825 0.6287,1.2819 0.0987,2.8283 -1.182,3.4557 -1.2807,0.628 -2.8276,0.1 -3.4563,-1.1826 z"
         style="fill:#efefef;fill-rule:evenodd"
         id="path178"
         inkscape:connector-curvature="0" />
      <path
         d="m 191.9613,48.1613 c 1.1353,-2.6847 4.2321,-3.9384 6.9167,-2.8031 2.6842,1.1354 3.9409,4.2304 2.8057,6.9151 -1.1353,2.6853 -4.2329,3.9408 -6.9169,2.8062 -2.6847,-1.1361 -3.9409,-4.2328 -2.8055,-6.9182 z"
         style="fill:#666666;fill-rule:evenodd"
         id="path180"
         inkscape:connector-curvature="0" />
      <path
         d="m 194.4436,49.212 c 0.5557,-1.3138 2.0706,-1.9279 3.385,-1.3722 1.3132,0.5559 1.9278,2.0703 1.3721,3.384 -0.5556,1.3151 -2.0707,1.9283 -3.3839,1.3727 -1.3145,-0.5557 -1.9296,-2.0694 -1.3732,-3.3845 z"
         style="fill:#efefef;fill-rule:evenodd"
         id="path182"
         inkscape:connector-curvature="0" />
      <path
         d="m 229.991,35.4198 c 2.432,-0.1325 4.5094,1.7316 4.6419,4.1641 0.1324,2.4321 -1.7304,4.5108 -4.1622,4.6433 -2.4333,0.1325 -4.5114,-1.7315 -4.6438,-4.1636 -0.1325,-2.4325 1.7308,-4.5113 4.1641,-4.6438 z"
         style="fill:#666666;fill-rule:evenodd"
         id="path184"
         inkscape:connector-curvature="0" />
      <path
         d="m 230.1137,37.6684 c 1.1905,-0.065 2.2069,0.8478 2.2718,2.0378 0.065,1.1904 -0.8469,2.2074 -2.0376,2.2724 -1.1905,0.065 -2.2074,-0.8471 -2.2724,-2.0375 -0.0645,-1.19 0.8471,-2.2076 2.0382,-2.2727 z"
         style="fill:#ffffff;fill-rule:evenodd"
         id="path186"
         inkscape:connector-curvature="0" />
      <path
         d="m 269.4511,73.9066 -0.1828,1.9842 -19.2204,-1.9383 -9.409,-15.2401 4.4261,-2.732 8.1142,13.1419 z"
         style="fill:#cccccc;fill-rule:evenodd"
         id="path188"
         inkscape:connector-curvature="0" />
      <path
         d="m 250.2706,68.2539 c 2.0608,-0.1124 3.8219,1.4677 3.9341,3.5274 0.1123,2.0608 -1.4666,3.8219 -3.5274,3.9341 -2.0596,0.1123 -3.822,-1.4666 -3.9336,-3.5275 -0.1121,-2.0603 1.4673,-3.8219 3.5269,-3.934 z"
         style="fill:#666666;fill-rule:evenodd"
         id="path190"
         inkscape:connector-curvature="0" />
      <defs
         id="defs198">
        <linearGradient
           id="grad1">
          <stop
             offset="0%"
             stop-color="#cccccc"
             stop-opacity="1.0000"
             id="stop192" />
          <stop
             offset="100%"
             stop-color="#ffffff"
             stop-opacity="1.0000"
             id="stop194" />
        </linearGradient>
        <linearGradient
           xlink:href="#grad1"
           id="grad2"
           x1="0"
           y1="0"
           x2="0"
           y2="1"
           gradientTransform="rotate(-137,0.5,0.5)"
           gradientUnits="objectBoundingBox" />
      </defs>
      <path
         d="M 252.2438,40.4434 234.1883,60.0341 227.356,53.7362 245.4115,34.1466 Z"
         style="fill:url(#grad2)"
         id="path200"
         inkscape:connector-curvature="0" />
      <path
         d="m 157.6908,121.5724 c -0.1104,-0.4222 -0.6576,-0.6729 -1.09,-0.6098 -1.3996,0.2024 -2.7601,-0.4392 -3.4655,-1.6352 -0.7207,-1.2249 -0.5967,-2.7921 0.3074,-3.8998 0.2851,-0.3471 0.2526,-0.8563 -0.0737,-1.1648 -0.8476,-0.8058 -1.7806,-1.5095 -2.773,-2.0933 -0.3883,-0.2283 -0.8937,-0.1155 -1.147,0.2618 -0.7642,1.1402 -2.3455,1.7512 -3.685,1.4071 -1.3942,-0.3632 -2.4172,-1.5752 -2.5424,-3.0166 -0.0386,-0.4532 -0.4232,-0.7966 -0.8789,-0.7838 -0.5741,0.0166 -1.1458,0.0644 -1.7138,0.1442 l -0.1252,0.0184 c -0.5373,0.0803 -1.0703,0.1883 -1.5984,0.3257 -0.4348,0.1128 -0.7085,0.5421 -0.6294,0.9837 0.2546,1.409 -0.3948,2.8392 -1.6192,3.5606 -1.1746,0.6913 -2.8521,0.5545 -3.9052,-0.3135 -0.3477,-0.2858 -0.8556,-0.2533 -1.1661,0.0701 -0.8115,0.8507 -1.5248,1.7934 -2.1167,2.7999 -0.2312,0.3919 -0.1165,0.8942 0.2589,1.1476 1.2021,0.809 1.767,2.2903 1.4052,3.687 -0.3453,1.3322 -1.5316,2.3294 -3.0232,2.5454 -0.4872,0.0546 -0.7845,0.4294 -0.7735,0.8777 0.0153,0.576 0.0638,1.1525 0.1453,1.7261 l 0.0141,0.0974 c 0.0816,0.5546 0.1939,1.106 0.3368,1.65 0.1097,0.4244 0.6716,0.6697 1.1096,0.6061 1.3254,-0.2264 2.7208,0.412 3.4452,1.6376 0.7226,1.2242 0.5986,2.7915 -0.3067,3.9004 -0.284,0.3472 -0.2527,0.8544 0.0737,1.1635 0.8396,0.8017 1.7733,1.5059 2.7686,2.0946 0.3914,0.2312 0.8944,0.1184 1.1495,-0.2607 0.7679,-1.1426 2.3486,-1.7529 3.6832,-1.4071 1.3979,0.3613 2.4204,1.5734 2.5461,3.0154 0.0387,0.4526 0.4251,0.7974 0.8778,0.7833 0.5943,-0.016 1.1861,-0.0675 1.775,-0.1527 0.5588,-0.081 1.1133,-0.1914 1.6634,-0.335 0.4349,-0.1129 0.7085,-0.5421 0.6287,-0.9844 -0.2563,-1.4077 0.395,-2.8381 1.6175,-3.5588 1.1832,-0.6949 2.854,-0.5532 3.9077,0.3123 0.3491,0.2852 0.8538,0.2526 1.1661,-0.0699 0.8095,-0.849 1.5211,-1.7912 2.1166,-2.8006 0.2313,-0.3907 0.1177,-0.8937 -0.2589,-1.147 -1.2028,-0.809 -1.7689,-2.2904 -1.4076,-3.6858 0.3399,-1.3132 1.4746,-2.3271 2.8247,-2.5227 l 0.1895,-0.0227 c 0.4433,-0.0277 0.7973,-0.4232 0.785,-0.8777 -0.0313,-1.1679 -0.1988,-2.3363 -0.4962,-3.474 z m -7.6603,-0.43 c 2.3872,4.0144 1.0685,9.204 -2.9466,11.5913 -4.0145,2.3872 -9.2035,1.0677 -11.5914,-2.9467 -2.3865,-4.0144 -1.0677,-9.2041 2.9467,-11.5913 4.0144,-2.3872 9.2042,-1.0679 11.5913,2.9467 z"
         style="fill:#00afef;fill-rule:evenodd"
         id="path202"
         inkscape:connector-curvature="0" />
      <path
         d="m 269.7393,72.3204 c 5.7675,0 10.4438,4.6757 10.4438,10.4439 l -6e-4,0.006 V 93.982 h -1.818 V 82.7825 82.7643 c 0,-4.7635 -3.8617,-8.6259 -8.6252,-8.6259 -4.7646,0 -8.6264,3.8624 -8.6264,8.6259 V 93.982 h -1.8184 V 82.7643 h 5e-4 c 0,-5.7682 4.6763,-10.4439 10.4443,-10.4439 z"
         style="fill:#00afef;fill-rule:evenodd"
         id="path204"
         inkscape:connector-curvature="0" />
      <path
         d="m 265.4391,82.2465 c 2.4073,0 4.3597,1.9511 4.3597,4.3592 v 7.3763 h -0.7593 v -7.3763 c 0,-1.9885 -1.6119,-3.6005 -3.6004,-3.6005 -1.9892,0 -3.6011,1.612 -3.6011,3.6005 v 7.3763 h -0.7588 v -7.3763 c 0,-2.4081 1.9518,-4.3592 4.3599,-4.3592 z"
         style="fill:#00afef;fill-rule:evenodd"
         id="path206"
         inkscape:connector-curvature="0" />
      <path
         d="m 274.1575,82.2465 c -2.4076,0 -4.3592,1.9511 -4.3592,4.3592 v 7.3763 h 0.7592 v -7.3763 c 0,-1.9885 1.612,-3.6005 3.6,-3.6005 1.989,0 3.6016,1.612 3.6016,3.6005 v 7.3763 h 0.7588 v -7.3763 c 0,-2.4081 -1.9524,-4.3592 -4.3604,-4.3592 z"
         style="fill:#00afef;fill-rule:evenodd"
         id="path208"
         inkscape:connector-curvature="0" />
      <path
         d="m 261.1129,83.0052 h 17.2514 v -0.7587 h -17.2514 z"
         style="fill:#00afef;fill-rule:evenodd"
         id="path210"
         inkscape:connector-curvature="0" />
      <path
         d="m 270.3687,73.1884 1.8063,-0.462 -4.7664,-18.6265 -16.24,-7.5512 -2.1935,4.7161 14.005,6.5127 z"
         style="fill:#cccccc;fill-rule:evenodd"
         id="path212"
         inkscape:connector-curvature="0" />
      <path
         d="m 290.6275,86.7136 c 5.768,0 10.4443,4.6757 10.4443,10.4437 v 11.2179 h -1.8186 v -11.2 -0.0179 c 0,-4.764 -3.8618,-8.6257 -8.6257,-8.6257 -4.7641,0 -8.6259,3.8617 -8.6259,8.6257 v 0.0063 11.2116 h -1.8185 V 97.1573 h 6e-4 c 0,-5.768 4.6756,-10.4437 10.4438,-10.4437 z"
         style="fill:#00afef;fill-rule:evenodd"
         id="path214"
         inkscape:connector-curvature="0" />
      <path
         d="m 300.5706,108.1942 c 5.7675,0 10.4438,5.4571 10.4438,12.1887 v 19.7466 h -1.8186 v -19.7466 c 0,-5.5601 -3.8611,-10.372 -8.6252,-10.372 h -61.0823 v 0 c -4.764,0 -8.6864,4.8132 -8.6257,10.372 v 19.7466 h -1.8187 v -19.7466 h 7e-4 c 0,-6.7316 4.6756,-12.1887 10.4437,-12.1887 z"
         style="fill:#00afef;fill-rule:evenodd"
         id="path216"
         inkscape:connector-curvature="0" />
      <path
         d="m 238.6958,120.5688 c 4.3261,0 7.8332,3.5072 7.8332,7.8332 v 11.7275 h -1.3635 V 128.402 c 0,-3.5728 -2.8962,-6.469 -6.4697,-6.469 -3.5728,0 -6.4691,2.8962 -6.4691,6.469 v 11.7275 h -1.3641 V 128.402 h 7e-4 c 0,-4.326 3.5065,-7.8332 7.8325,-7.8332 z"
         style="fill:#00afef;fill-rule:evenodd"
         id="path218"
         inkscape:connector-curvature="0" />
      <path
         d="m 254.3624,120.5688 c -4.3262,0 -7.8334,3.5072 -7.8334,7.8332 v 11.7275 h 1.3641 v -11.7139 l -5e-4,-0.0136 c 0,-3.5728 2.8968,-6.469 6.4698,-6.469 3.5728,0 6.4697,2.8962 6.4697,6.469 v 11.7275 h 1.3635 v -11.7275 0 c 0,-4.326 -3.5072,-7.8332 -7.8332,-7.8332 z"
         style="fill:#00afef;fill-rule:evenodd"
         id="path220"
         inkscape:connector-curvature="0" />
      <path
         d="m 270.0295,120.5688 c 4.326,0 7.8332,3.5072 7.8332,7.8332 l -7e-4,0.004 v 11.7231 h -1.3634 v -11.7139 -0.0136 c 0,-3.5728 -2.8963,-6.469 -6.4691,-6.469 -3.573,0 -6.4697,2.8962 -6.4697,6.469 v 11.7275 h -1.3642 V 128.402 h 7e-4 c 0,-4.326 3.5065,-7.8332 7.8332,-7.8332 z"
         style="fill:#00afef;fill-rule:evenodd"
         id="path222"
         inkscape:connector-curvature="0" />
      <path
         d="m 285.6959,120.5688 c -4.3266,0 -7.8332,3.5072 -7.8332,7.8332 v 11.7275 h 1.3635 v -11.7139 -0.0136 c 0,-3.5728 2.8963,-6.469 6.4697,-6.469 3.573,0 6.4693,2.8962 6.4693,6.469 v 11.7275 h 1.3641 V 128.402 h -7e-4 c 0,-4.326 -3.5065,-7.8332 -7.8327,-7.8332 z"
         style="fill:#00afef;fill-rule:evenodd"
         id="path224"
         inkscape:connector-curvature="0" />
      <path
         d="m 301.3625,120.5688 c 4.326,0 7.8333,3.5072 7.8333,7.8332 v 11.7275 h -1.3635 v -11.7139 -0.0136 c 0,-3.5728 -2.8963,-6.469 -6.4698,-6.469 -3.5729,0 -6.4692,2.8962 -6.4692,6.469 v 11.7275 h -1.364 V 128.402 h 6e-4 c 0,-4.326 3.5065,-7.8332 7.8326,-7.8332 z"
         style="fill:#00afef;fill-rule:evenodd"
         id="path226"
         inkscape:connector-curvature="0" />
      <path
         d="m 286.3149,96.639 c 2.4081,0 4.3597,1.9518 4.3597,4.3599 v 7.1953 h -0.7593 v -7.1953 c 0,-1.9885 -1.6119,-3.6005 -3.6004,-3.6005 -1.9885,0 -3.6004,1.612 -3.6004,3.6005 v 7.1953 h -0.7595 v -7.1953 c 0,-2.4081 1.9524,-4.3599 4.3599,-4.3599 z"
         style="fill:#00afef;fill-rule:evenodd"
         id="path228"
         inkscape:connector-curvature="0" />
      <path
         d="m 295.0338,96.639 c -2.4074,0 -4.3592,1.9518 -4.3592,4.3599 v 7.1953 h 0.7588 v -7.1953 c 0,-1.9885 1.6126,-3.6005 3.6004,-3.6005 1.9892,0 3.6011,1.612 3.6011,3.6005 v 7.1953 h 0.7593 v -7.1953 c 0,-2.4081 -1.9523,-4.3599 -4.3604,-4.3599 z"
         style="fill:#00afef;fill-rule:evenodd"
         id="path230"
         inkscape:connector-curvature="0" />
      <path
         d="m 230.8626,121.933 h 78.3332 v -1.3639 h -78.3332 z"
         style="fill:#00afef;fill-rule:evenodd"
         id="path232"
         inkscape:connector-curvature="0" />
      <path
         d="m 295.4509,110.0104 c 3.7477,0.6704 5.4914,5.8588 5.4914,10.532 h 1.5813 v -0.2214 h -7e-4 c 0,-6.0147 -2.7747,-11.0116 -6.4236,-12.0077 h -0.6484 z"
         style="fill:#00afef;fill-rule:evenodd"
         id="path234"
         inkscape:connector-curvature="0" />
      <path
         d="m 269.2388,120.5688 h 1.3353 v -10.5582 h -1.3353 z"
         style="fill:#00afef;fill-rule:evenodd"
         id="path236"
         inkscape:connector-curvature="0" />
      <path
         d="m 258.9558,120.5688 h 1.3351 v -10.5582 h -1.3351 z"
         style="fill:#00afef;fill-rule:evenodd"
         id="path238"
         inkscape:connector-curvature="0" />
      <path
         d="m 279.7151,120.5688 h 1.3349 v -10.5582 h -1.3349 z"
         style="fill:#00afef;fill-rule:evenodd"
         id="path240"
         inkscape:connector-curvature="0" />
      <path
         d="m 248.3459,120.5688 h 1.3349 v -10.5582 h -1.3349 z"
         style="fill:#00afef;fill-rule:evenodd"
         id="path242"
         inkscape:connector-curvature="0" />
      <path
         d="m 290.0165,120.5688 h 1.335 v -10.5582 h -1.335 z"
         style="fill:#00afef;fill-rule:evenodd"
         id="path244"
         inkscape:connector-curvature="0" />
      <path
         d="m 244.7479,110.0104 c -3.7482,0.6704 -5.4921,5.8588 -5.4921,10.532 h -1.5806 v -0.2214 c 0,-6.0147 2.7749,-11.0116 6.4244,-12.0077 h 0.6483 z"
         style="fill:#00afef;fill-rule:evenodd"
         id="path246"
         inkscape:connector-curvature="0" />
      <path
         d="m 282.0016,97.3984 h 17.2516 v -0.7591 h -17.2516 z"
         style="fill:#00afef;fill-rule:evenodd"
         id="path248"
         inkscape:connector-curvature="0" />
      <path
         d="m 248.8501,86.7136 c -5.7682,0 -10.4438,4.6757 -10.4438,10.4437 v 11.2179 h 1.8186 v -11.2 l -7e-4,-0.0179 c 0,-4.764 3.8618,-8.6257 8.6259,-8.6257 4.764,0 8.6262,3.8617 8.6262,8.6257 v 11.2179 h 1.8182 v -11.2179 0 c 0,-5.768 -4.6764,-10.4437 -10.4444,-10.4437 z"
         style="fill:#00afef;fill-rule:evenodd"
         id="path250"
         inkscape:connector-curvature="0" />
      <path
         d="m 253.1504,96.639 c -2.4076,0 -4.3599,1.9518 -4.3599,4.3599 v 7.1953 h 0.7594 v -7.1953 c 0,-1.9885 1.6119,-3.6005 3.6005,-3.6005 1.9885,0 3.6009,1.612 3.6009,3.6005 v 7.1953 h 0.7588 v -7.1953 c 0,-2.4081 -1.9517,-4.3599 -4.3597,-4.3599 z"
         style="fill:#00afef;fill-rule:evenodd"
         id="path252"
         inkscape:connector-curvature="0" />
      <path
         d="m 244.4313,96.639 c 2.4075,0 4.3592,1.9518 4.3592,4.3599 v 7.1953 h -0.7586 v -7.188 -0.007 c 0,-1.9885 -1.6119,-3.6005 -3.6006,-3.6005 -1.9885,0 -3.6004,1.612 -3.6004,3.6005 v 7.1953 h -0.7593 v -7.1953 0 c 0,-2.4081 1.9523,-4.3599 4.3597,-4.3599 z"
         style="fill:#00afef;fill-rule:evenodd"
         id="path254"
         inkscape:connector-curvature="0" />
      <path
         d="m 240.2249,97.3984 h 17.2514 v -0.7591 h -17.2514 z"
         style="fill:#00afef;fill-rule:evenodd"
         id="path256"
         inkscape:connector-curvature="0" />
      <path
         d="m 261.7202,55.0972 c 0.1124,2.0596 1.8745,3.639 3.9348,3.5269 2.0602,-0.1123 3.6396,-1.8745 3.5267,-3.9341 -0.1116,-2.0603 -1.873,-3.6392 -3.9334,-3.5269 -2.061,0.1122 -3.6404,1.8733 -3.5281,3.9341 z"
         style="fill:#666666;fill-rule:evenodd"
         id="path258"
         inkscape:connector-curvature="0" />
      <path
         d="m 213.5896,139.2722 h -3.682 l 1.5984,-7.6543 h 6.6857 z"
         style="fill:#000000;fill-rule:evenodd"
         id="path260"
         inkscape:connector-curvature="0" />
      <path
         d="m 211.9422,170.8112 c -2.3903,0 -4.5297,-0.3962 -6.419,-1.1875 -1.889,-0.7918 -3.4961,-1.8725 -4.8209,-3.2452 -1.3237,-1.3734 -2.3412,-2.9797 -3.0521,-4.8211 -0.7097,-1.8406 -1.0655,-3.8109 -1.0655,-5.9103 0,-2.0989 0.3558,-4.0692 1.0655,-5.9104 0.7109,-1.8413 1.7284,-3.4478 3.0521,-4.8205 1.3248,-1.3727 2.9319,-2.4546 4.8209,-3.2464 1.8893,-0.7908 4.0287,-1.1863 6.419,-1.1863 2.3902,0 4.5383,0.3955 6.4433,1.1863 1.9058,0.7918 3.5201,1.8737 4.845,3.2464 1.3242,1.3727 2.3411,2.9792 3.0521,4.8205 0.7102,1.8412 1.0654,3.8115 1.0654,5.9104 0,2.0994 -0.3552,4.0697 -1.0654,5.9103 -0.711,1.8414 -1.7279,3.4477 -3.0521,4.8211 -1.3249,1.3727 -2.9392,2.4534 -4.845,3.2452 -1.905,0.7913 -4.0531,1.1875 -6.4433,1.1875 z m 0,-5.6202 c 1.3567,0 2.616,-0.2344 3.7788,-0.7023 1.1623,-0.4687 2.156,-1.1304 2.9792,-1.9867 0.8243,-0.8556 1.4696,-1.8646 1.9381,-3.0276 0.4681,-1.1623 0.7024,-2.4386 0.7024,-3.8273 0,-1.3887 -0.2343,-2.6645 -0.7024,-3.8275 -0.4685,-1.1623 -1.1138,-2.1639 -1.9381,-3.003 -0.8232,-0.8403 -1.8169,-1.5021 -2.9792,-1.9861 -1.1628,-0.4851 -2.4221,-0.7268 -3.7788,-0.7268 -1.3568,0 -2.608,0.2417 -3.755,0.7268 -1.1458,0.484 -2.1314,1.1458 -2.9547,1.9861 -0.8238,0.8391 -1.4615,1.8407 -1.9142,3.003 -0.4521,1.163 -0.6778,2.4388 -0.6778,3.8275 0,1.3887 0.2257,2.665 0.6778,3.8273 0.4527,1.163 1.0904,2.172 1.9142,3.0276 0.8233,0.8563 1.8089,1.518 2.9547,1.9867 1.147,0.4679 2.3982,0.7023 3.755,0.7023 z"
         style="fill:#000000;fill-rule:evenodd"
         id="path262"
         inkscape:connector-curvature="0" />
      <path
         d="m 52.9787,110.9016 h 1.0176 l 14.9698,29.0672 H 62.3282 L 60.439,135.9962 H 46.5354 l -1.8411,3.9726 h -6.6374 z m 0.6777,10.6094 h -0.3875 l -4.4083,9.4954 -0.3393,0.6294 h 9.8825 l -0.3385,-0.6294 z"
         style="fill:#000000;fill-rule:evenodd"
         id="path264"
         inkscape:connector-curvature="0" />
      <path
         d="m 110.9318,110.9016 h 1.0174 l 14.9698,29.0672 h -6.6377 l -1.8893,-3.9726 h -13.9037 l -1.8408,3.9726 h -6.6377 z m 0.6782,10.6094 h -0.3875 l -4.409,9.4954 -0.3392,0.6294 h 9.8831 l -0.3392,-0.6294 z"
         style="fill:#000000;fill-rule:evenodd"
         id="path266"
         inkscape:connector-curvature="0" />
      <path
         d="m 114.8559,109.2541 c -0.7107,0 -1.3487,-0.0969 -1.9142,-0.2907 -0.5642,-0.1939 -1.09,-0.4116 -1.5739,-0.6539 -0.4846,-0.2422 -0.9286,-0.4679 -1.3329,-0.6778 -0.403,-0.2104 -0.815,-0.3159 -1.2353,-0.3159 -0.4838,0 -0.8311,0.1295 -1.0414,0.3882 -0.2099,0.2584 -0.3791,0.5816 -0.5086,0.9687 l -0.1937,0.7267 -4.0697,-0.3392 0.2907,-1.5983 c 0.2264,-1.3567 0.7188,-2.4467 1.4782,-3.2705 0.7588,-0.8238 1.8646,-1.2353 3.3178,-1.2353 0.7107,0 1.3406,0.1048 1.8897,0.3152 0.5489,0.2099 1.058,0.4356 1.526,0.6777 0.4686,0.2424 0.9127,0.4601 1.3329,0.654 0.4195,0.1943 0.8391,0.2914 1.2592,0.2914 0.4845,0 0.8402,-0.1296 1.0659,-0.3878 0.2259,-0.2588 0.3878,-0.5974 0.4841,-1.0174 l 0.1938,-0.7263 4.0696,0.3871 -0.2422,1.599 c -0.2257,1.3562 -0.7268,2.4467 -1.5022,3.2697 -0.7753,0.8233 -1.8731,1.2354 -3.2938,1.2354 z"
         style="fill:#000000;fill-rule:evenodd"
         id="path268"
         inkscape:connector-curvature="0" />
      <path
         d="m 71.9691,139.9688 v -29.0672 h 5.8624 v 23.9316 h 15.5022 v 5.1356 z"
         style="fill:#000000;fill-rule:evenodd"
         id="path270"
         inkscape:connector-curvature="0" />
      <path
         d="m 17.3708,132.4116 c 0.7746,0.549 1.6149,1.0176 2.519,1.4046 0.7752,0.3552 1.6799,0.6785 2.713,0.9692 1.0336,0.2907 2.1476,0.436 3.3429,0.436 1.7764,0 3.0441,-0.3072 3.8028,-0.9206 0.7596,-0.6134 1.1387,-1.3887 1.1387,-2.3253 0,-0.4846 -0.0887,-0.9126 -0.2666,-1.2837 -0.1773,-0.3717 -0.5085,-0.7189 -0.9933,-1.0416 -0.4842,-0.3232 -1.1301,-0.6379 -1.9375,-0.9451 -0.8073,-0.3067 -1.8415,-0.638 -3.1008,-0.993 -3.294,-0.9041 -5.7896,-2.0186 -7.4848,-3.3429 -1.6953,-1.3242 -2.5433,-3.1489 -2.5433,-5.4742 0,-2.616 0.9526,-4.7076 2.858,-6.2742 1.9061,-1.5658 4.7322,-2.3491 8.4785,-2.3491 1.9377,0 3.6009,0.1614 4.9898,0.4846 1.3888,0.3225 2.5355,0.6617 3.4396,1.0174 1.066,0.4521 1.9219,0.9527 2.568,1.501 l -3.1494,4.7972 c -0.6136,-0.4528 -1.324,-0.8563 -2.1315,-1.2115 -0.6786,-0.2907 -1.5018,-0.5654 -2.4708,-0.8238 -0.9691,-0.2582 -2.0507,-0.3875 -3.2457,-0.3875 -1.6149,0 -2.8102,0.2589 -3.5852,0.7752 -0.7752,0.5164 -1.1628,1.2274 -1.1628,2.1315 0,0.452 0.1049,0.8396 0.3149,1.1623 0.21,0.3239 0.5494,0.6306 1.0175,0.9213 0.4685,0.29 1.0899,0.5649 1.8654,0.8231 0.7746,0.2589 1.7279,0.5496 2.858,0.8723 3.585,0.9364 6.2095,2.0989 7.8722,3.4881 1.6632,1.3886 2.4953,3.2619 2.4953,5.6197 0,1.2591 -0.2259,2.4466 -0.6779,3.5611 -0.4528,1.1138 -1.1465,2.0824 -2.0834,2.9067 -0.9365,0.8231 -2.1318,1.4776 -3.5852,1.9621 -1.4535,0.4841 -3.1652,0.7263 -5.1351,0.7263 -2.0348,0 -3.7867,-0.1939 -5.2567,-0.5809 -1.4697,-0.3883 -2.7049,-0.8078 -3.7063,-1.2604 -1.1625,-0.5484 -2.1473,-1.1783 -2.9547,-1.8892 z"
         style="fill:#000000;fill-rule:evenodd"
         id="path272"
         inkscape:connector-curvature="0" />
      <path
         d="m 102.6475,141.1134 h 13.1292 c 3.7138,0 6.6285,0.8643 8.7441,2.5915 2.1155,1.7279 3.1734,4.1905 3.1734,7.3885 0,2.1634 -0.4925,3.9808 -1.4775,5.4498 -0.9851,1.4695 -2.3173,2.608 -3.9973,3.4151 v 0.4362 l 6.928,9.2054 v 0.5807 h -6.6373 l -6.4427,-8.8654 h -7.558 v 8.8654 h -5.8619 z m 18.991,10.2223 c 0,-1.68 -0.5329,-2.9472 -1.5989,-3.8035 -1.0655,-0.8556 -2.5517,-1.2831 -4.4574,-1.2831 h -7.0728 v 10.1248 h 7.2188 c 1.8407,0 3.2857,-0.4123 4.3359,-1.2354 1.0495,-0.8237 1.5744,-2.0916 1.5744,-3.8028 z"
         style="fill:#000000;fill-rule:evenodd"
         id="path274"
         inkscape:connector-curvature="0" />
      <path
         d="m 309.9975,141.1134 h 1.0169 l 14.9698,29.0672 h -6.6372 l -1.8893,-3.972 h -13.9043 l -1.8407,3.972 h -6.6372 z m 0.6777,10.6101 h -0.387 l -4.4095,9.4953 -0.3387,0.6294 h 9.8826 l -0.3385,-0.6294 z"
         style="fill:#000000;fill-rule:evenodd"
         id="path276"
         inkscape:connector-curvature="0" />
      <path
         d="m 193.0003,161.7027 c 0,2.7455 -0.9851,4.8445 -2.9559,6.2982 -1.9701,1.4537 -4.6664,2.1797 -8.0907,2.1797 h -14.3393 v -29.0672 h 13.9521 c 3.4565,0 6.0803,0.6857 7.8727,2.0584 1.7922,1.3734 2.6888,3.319 2.6888,5.8386 0,1.3562 -0.3232,2.5345 -0.9691,3.5361 -0.6458,1.0017 -1.5499,1.7597 -2.7129,2.2773 v 0.6294 c 1.4205,0.4521 2.535,1.2274 3.3428,2.3253 0.8073,1.0985 1.2115,2.4062 1.2115,3.9242 z m -19.524,-4.0695 v 7.4124 h 8.6718 c 1.3886,0 2.5031,-0.3472 3.3427,-1.0414 0.8398,-0.6944 1.2593,-1.5906 1.2593,-2.689 0,-1.066 -0.4275,-1.9456 -1.2838,-2.64 -0.8556,-0.695 -1.9946,-1.042 -3.4152,-1.042 z m 12.4506,-7.848 c 0,-1.1305 -0.3796,-2.0021 -1.139,-2.616 -0.7586,-0.6134 -1.8646,-0.9201 -3.3183,-0.9201 h -7.9933 v 7.0727 h 7.9448 c 1.4532,0 2.5677,-0.3312 3.343,-0.9936 0.7752,-0.6619 1.1628,-1.5095 1.1628,-2.543 z"
         style="fill:#000000;fill-rule:evenodd"
         id="path278"
         inkscape:connector-curvature="0" />
      <path
         d="m 294.737,167.2256 c -0.6784,0.6789 -1.5182,1.2756 -2.5197,1.7927 -0.8397,0.4521 -1.9052,0.8643 -3.1976,1.2353 -1.2916,0.3713 -2.8096,0.5576 -4.554,0.5576 -2.3891,0 -4.5378,-0.3962 -6.4428,-1.1875 -1.9058,-0.7918 -3.5208,-1.8725 -4.845,-3.2452 -1.3237,-1.3734 -2.3493,-2.9797 -3.0761,-4.8211 -0.7267,-1.8406 -1.0899,-3.8109 -1.0899,-5.9103 0,-2.0989 0.3632,-4.0692 1.0899,-5.9104 0.7268,-1.8413 1.7524,-3.4478 3.0761,-4.8205 1.3242,-1.3727 2.9392,-2.4546 4.845,-3.2464 1.905,-0.7908 4.0537,-1.1863 6.4428,-1.1863 1.7769,0 3.3107,0.1859 4.6026,0.5576 1.2923,0.371 2.3578,0.7833 3.1974,1.2353 1.0016,0.5484 1.8247,1.1463 2.4713,1.7922 l -3.3429,4.5058 c -0.6146,-0.4528 -1.2764,-0.8563 -1.9866,-1.2114 -0.6134,-0.3233 -1.3402,-0.614 -2.1805,-0.8722 -0.8391,-0.2582 -1.7274,-0.3871 -2.664,-0.3871 -1.3892,0 -2.665,0.2417 -3.8273,0.7268 -1.163,0.484 -2.1639,1.1458 -3.0035,1.9861 -0.8398,0.8391 -1.4943,1.8407 -1.9623,3.003 -0.4686,1.163 -0.7023,2.4388 -0.7023,3.8275 0,1.3887 0.2337,2.665 0.7023,3.8273 0.468,1.163 1.1225,2.172 1.9623,3.0276 0.8396,0.8563 1.8405,1.526 3.0035,2.0113 1.1623,0.4838 2.4381,0.7262 3.8273,0.7262 1.098,0 2.0744,-0.1295 2.9307,-0.3877 0.8556,-0.2582 1.5746,-0.5489 2.156,-0.8716 0.6779,-0.355 1.2593,-0.7753 1.7444,-1.2599 z"
         style="fill:#000000;fill-rule:evenodd"
         id="path280"
         inkscape:connector-curvature="0" />
      <path
         d="m 257.9658,170.1806 h 5.8622 v -29.0674 h -5.8622 z"
         style="fill:#000000;fill-rule:evenodd"
         id="path282"
         inkscape:connector-curvature="0" />
      <path
         d="m 229.0439,141.1134 h 24.8044 v 5.1357 h -9.4476 v 23.9315 h -5.8619 v -23.9315 h -9.4949 z"
         style="fill:#000000;fill-rule:evenodd"
         id="path284"
         inkscape:connector-curvature="0" />
      <path
         d="m 149.2116,140.3282 c -0.4329,-0.0612 -0.8764,0.3485 -0.9849,0.7736 -0.3533,1.3726 -1.4728,2.384 -2.8516,2.5754 -1.412,0.1932 -2.8147,-0.5262 -3.4907,-1.7903 -0.2116,-0.3981 -0.6943,-0.5643 -1.1065,-0.3821 -1.0728,0.4734 -2.0849,1.0653 -3.0079,1.7578 -0.3613,0.2712 -0.4521,0.7827 -0.2007,1.163 0.76,1.1475 0.7153,2.8465 -0.1208,3.9532 -0.874,1.1506 -2.3908,1.6284 -3.7739,1.188 -0.4344,-0.1393 -0.9005,0.0847 -1.0643,0.5103 -0.2065,0.538 -0.3827,1.0856 -0.5287,1.642 l -0.0311,0.1233 c -0.1332,0.528 -0.2393,1.0635 -0.3154,1.6046 -0.0638,0.4465 0.2276,0.8648 0.6668,0.9623 1.4027,0.3085 2.4749,1.4623 2.6699,2.8742 0.1858,1.3538 -0.5888,2.8528 -1.7984,3.4925 -0.3986,0.2116 -0.5648,0.6942 -0.3852,1.1065 0.4736,1.0788 1.071,2.1038 1.7739,3.0404 0.273,0.3649 0.7821,0.4527 1.1611,0.2031 1.2132,-0.7998 2.8024,-0.7508 3.9549,0.1232 1.0998,0.8343 1.5647,2.3173 1.1881,3.7815 -0.1374,0.4717 0.0951,0.8917 0.5141,1.0543 0.5385,0.2079 1.091,0.3858 1.653,0.5324 l 0.0963,0.0245 c 0.5445,0.138 1.0979,0.2472 1.6566,0.3258 0.4355,0.0619 0.8796,-0.3632 0.99,-0.7932 0.3018,-1.3137 1.4316,-2.359 2.8455,-2.5558 1.4125,-0.1963 2.8145,0.5232 3.4905,1.7898 0.2123,0.3974 0.6938,0.5642 1.106,0.3814 1.066,-0.4678 2.078,-1.0598 3.0079,-1.7541 0.3649,-0.2724 0.4545,-0.7815 0.2024,-1.1635 -0.7612,-1.1521 -0.7151,-2.8511 0.1196,-3.9525 0.874,-1.1545 2.3908,-1.6323 3.7739,-1.1919 0.4344,0.1393 0.9017,-0.0852 1.0643,-0.5096 0.2147,-0.5558 0.3957,-1.1237 0.544,-1.7016 0.1412,-0.5482 0.2528,-1.1046 0.3319,-1.6683 0.0638,-0.4465 -0.2276,-0.8655 -0.6673,-0.9623 -1.4022,-0.3067 -2.4745,-1.4617 -2.6688,-2.8718 -0.1864,-1.3629 0.5894,-2.8547 1.7977,-3.495 0.3987,-0.2134 0.5637,-0.6924 0.3859,-1.1065 -0.4735,-1.077 -1.0704,-2.0995 -1.7745,-3.0404 -0.2723,-0.365 -0.7821,-0.4538 -1.1616,-0.2031 -1.2133,0.8005 -2.8026,0.7521 -3.9545,-0.1207 -1.0844,-0.822 -1.5842,-2.2634 -1.2438,-3.5882 l 0.0527,-0.184 c 0.1453,-0.4214 -0.0847,-0.9017 -0.5098,-1.0667 -1.0929,-0.4214 -2.2387,-0.7177 -3.4066,-0.8815 z m -3.3563,6.9232 c 4.637,-0.6594 8.9307,2.5656 9.5893,7.2026 0.6588,4.6371 -2.5663,8.93 -7.2033,9.5893 -4.637,0.6588 -8.93,-2.5663 -9.5893,-7.2033 -0.6588,-4.637 2.5663,-8.93 7.2033,-9.5886 z"
         style="fill:#00afef;fill-rule:evenodd"
         id="path286"
         inkscape:connector-curvature="0" />
      <path
         d="m 142.6836,125.4531 c 0.2859,0.379 0.4846,0.7745 0.5962,1.1856 0.1123,0.4115 0.1349,0.8218 0.0699,1.2316 -0.065,0.4097 -0.2196,0.8054 -0.4637,1.1875 -0.2434,0.3815 -0.5783,0.7329 -1.0034,1.0531 l -2.0346,1.5334 -3.8972,-5.1726 2.0344,-1.5326 c 0.4251,-0.3209 0.8551,-0.5454 1.2894,-0.6742 0.4342,-0.1294 0.8575,-0.1687 1.2691,-0.1183 0.4115,0.0503 0.7998,0.1852 1.1647,0.406 0.3643,0.2208 0.6894,0.5214 0.9752,0.9005 z m -5.0012,1.147 2.5202,3.3439 0.9225,-0.6949 c 0.2472,-0.1859 0.4501,-0.395 0.6085,-0.6275 0.1582,-0.2318 0.2624,-0.4766 0.3109,-0.7348 0.0497,-0.2576 0.0393,-0.5243 -0.0294,-0.8017 -0.0694,-0.2766 -0.2055,-0.5501 -0.4091,-0.8206 -0.2031,-0.2698 -0.4287,-0.4761 -0.676,-0.6188 -0.2465,-0.1424 -0.5011,-0.2258 -0.7624,-0.2497 -0.2613,-0.024 -0.5256,0.009 -0.7925,0.0969 -0.2662,0.0883 -0.5231,0.2257 -0.7704,0.4115 z"
         style="fill:#ffffff;fill-rule:evenodd"
         id="path288"
         inkscape:connector-curvature="0" />
      <path
         d="m 147.4286,122.5665 -2.4485,1.8451 0.9293,1.2327 2.9741,-2.2411 0.6882,0.9138 -4.0168,3.027 -3.8974,-5.1725 4.017,-3.0268 0.6887,0.9138 -2.9742,2.2411 0.9483,1.2587 2.4478,-1.8449 z"
         style="fill:#ffffff;fill-rule:evenodd"
         id="path290"
         inkscape:connector-curvature="0" />
    </g>
  </g>
</svg>
